<?xml version="1.0" standalone="no"?>
<!DOCTYPE svg PUBLIC "-//W3C//DTD SVG 20010904//EN"
 "http://www.w3.org/TR/2001/REC-SVG-20010904/DTD/svg10.dtd">
<svg version="1.0" xmlns="http://www.w3.org/2000/svg"
 width="1040.000000pt" height="1040.000000pt" viewBox="0 0 1040.000000 1040.000000"
 preserveAspectRatio="xMidYMid meet">
<metadata>
Created by potrace 1.11, written by Peter Selinger 2001-2013
</metadata>
<g transform="translate(0.000000,1040.000000) scale(0.100000,-0.100000)"
fill="#000000" stroke="none">
<path d="M2056 8348 c-101 -22 -264 -137 -411 -289 -129 -134 -259 -281 -294
-332 -8 -12 -18 -24 -21 -27 -14 -12 -102 -133 -167 -230 -221 -333 -382 -677
-491 -1057 -42 -144 -57 -205 -67 -263 -3 -19 -10 -51 -15 -70 -5 -19 -12 -53
-14 -75 -3 -22 -8 -49 -10 -61 -2 -12 -7 -45 -11 -75 -3 -30 -8 -65 -10 -79
-31 -209 -36 -726 -10 -985 2 -22 7 -71 11 -110 3 -38 8 -72 9 -75 2 -3 6 -29
10 -59 4 -30 9 -63 11 -75 4 -19 13 -69 19 -106 2 -8 13 -55 25 -105 12 -49
23 -97 25 -105 35 -163 184 -588 245 -698 5 -9 35 -69 66 -132 184 -375 460
-759 749 -1043 200 -197 343 -270 462 -237 57 17 116 74 136 135 15 43 15 50
-3 109 -25 79 -83 169 -146 226 -119 108 -270 267 -357 375 -87 108 -122 155
-183 245 -147 217 -266 437 -357 660 -36 87 -123 336 -132 374 -2 12 -16 68
-30 126 -15 58 -29 116 -31 130 -3 14 -11 59 -19 100 -8 41 -17 95 -20 120 -3
25 -8 61 -10 80 -16 133 -20 222 -20 510 0 179 4 366 8 415 8 85 25 206 52
365 11 65 77 305 114 417 105 317 314 713 498 948 147 187 267 317 457 495 82
77 160 199 181 282 12 49 -39 129 -104 162 -36 19 -96 25 -145 14z"/>
<path d="M8256 8328 c-81 -17 -147 -83 -161 -160 -14 -78 80 -264 166 -328 83
-62 283 -278 425 -460 53 -68 214 -304 214 -314 0 -3 15 -29 33 -58 157 -248
348 -744 407 -1053 6 -33 13 -69 15 -80 17 -87 40 -254 51 -380 15 -160 8
-737 -11 -855 -2 -14 -7 -49 -10 -78 -3 -29 -10 -76 -16 -105 -5 -28 -12 -68
-15 -87 -3 -19 -8 -38 -10 -41 -2 -4 -6 -24 -10 -44 -8 -49 -9 -54 -39 -165
-92 -337 -245 -674 -438 -965 -170 -256 -314 -422 -574 -662 -79 -74 -115
-121 -160 -215 -32 -67 -27 -123 17 -178 115 -145 320 -78 594 194 426 423
747 928 936 1471 23 66 43 128 45 138 2 9 6 21 9 25 24 40 115 466 131 615 4
32 8 67 10 77 19 99 26 626 11 845 -4 66 -9 122 -11 125 -1 3 -6 39 -9 79 -4
41 -9 77 -10 80 -2 4 -7 30 -10 60 -9 73 -50 275 -81 396 -14 55 -28 107 -30
117 -10 45 -108 327 -151 433 -123 308 -331 674 -533 940 -129 171 -380 442
-458 495 -20 14 -43 31 -51 39 -32 33 -150 91 -202 101 -19 3 -53 2 -74 -2z"/>
<path d="M4457 8179 c-31 -5 -76 -13 -98 -19 l-40 -11 48 -25 c112 -59 251
-241 322 -422 40 -102 53 -260 37 -442 -20 -207 -105 -433 -359 -950 -232
-473 -308 -659 -371 -900 -45 -176 -54 -224 -72 -392 -24 -224 13 -493 97
-712 131 -341 356 -611 684 -821 108 -69 199 -91 355 -86 33 1 29 4 -65 57
-284 159 -407 298 -482 541 -23 77 -27 105 -27 223 0 159 13 214 84 367 57
121 108 199 285 433 206 274 292 413 333 540 61 185 41 388 -49 519 l-31 44
63 -7 c149 -17 285 -110 342 -236 50 -110 109 -297 122 -385 3 -22 8 -51 11
-65 6 -31 6 -235 0 -270 -27 -157 -32 -212 -25 -270 10 -72 35 -94 101 -88 84
9 160 82 197 190 24 72 25 124 6 262 -9 64 -15 121 -13 127 5 14 102 -134 141
-216 74 -151 116 -342 111 -500 -3 -74 -14 -207 -20 -237 -2 -13 -7 -36 -10
-53 -46 -260 -182 -542 -366 -760 l-42 -50 40 36 c21 20 95 81 164 135 133
105 217 184 265 249 16 22 33 42 36 45 3 3 29 39 56 80 82 120 141 240 244
495 37 94 110 349 124 440 4 22 9 54 11 70 3 17 9 55 14 85 30 180 33 576 5
751 -2 13 -9 58 -15 99 -7 41 -23 122 -36 180 -14 58 -27 119 -29 135 -9 61
-18 95 -26 101 -5 3 -9 12 -9 20 0 27 -101 225 -163 316 -66 100 -221 263
-328 346 -36 28 -74 62 -82 74 l-17 23 9 -25 c5 -14 18 -43 29 -65 24 -50 60
-153 67 -196 3 -18 8 -35 10 -39 16 -26 23 -214 12 -328 -11 -115 -94 -287
-170 -354 -96 -84 -209 -51 -262 76 -31 74 -40 135 -49 346 -9 182 -31 328
-77 500 -51 193 -173 463 -264 585 -132 176 -357 347 -533 404 -35 11 -96 23
-135 27 -40 3 -79 7 -87 8 -8 2 -41 -1 -73 -5z"/>
<path d="M3108 3149 c-107 -12 -193 -86 -218 -189 -14 -57 -7 -138 15 -181 36
-68 113 -131 179 -145 11 -3 1009 -5 2217 -6 2161 0 2196 0 2240 19 91 41 159
142 159 237 0 79 -53 183 -114 222 -73 48 23 46 -2265 48 -1186 0 -2182 -2
-2213 -5z"/>
</g>
</svg>
