<svg id="Layer_1" data-name="Layer 1" xmlns="http://www.w3.org/2000/svg" viewBox="0 0 175.8 54.03"><defs><style>.cls-1{fill:#ff7b00}</style></defs><title>aerolab2</title><g id="Aerolab_-_completo-3" data-name="Aerolab - completo-3"><path id="_Path_" data-name="Path" class="cls-1" d="M436.6 270.26L423 285.74l-5.72 6.53a8.72 8.72 0 0 1-7 3.38c-4.05 0-6-2.52-7.79-4.73-2-2.48-3.83-4.82-8.73-4.82h-.2a1.57 1.57 0 0 1-1.56-1.58 1.59 1.59 0 0 1 1.58-1.58h.18c6.44 0 9.09 3.33 11.21 6 1.8 2.25 2.93 3.51 5.31 3.51 2.16 0 3.29-.86 4.59-2.34l.81-.9-5.31-26.06a1 1 0 0 1 .45-1l15.57-9a1 1 0 0 1 1.31.36l9 15.71a1 1 0 0 1-.1 1.04z" transform="translate(-392 -253)"/><path id="_Compound_Path_" data-name="Compound Path" class="cls-1" d="M511.75 296.86a10.08 10.08 0 1 1-10-10.13 10.08 10.08 0 0 1 10 10.17zm-3.33 0a6.75 6.75 0 1 0-6.71 6.8 6.75 6.75 0 0 0 6.71-6.85z" transform="translate(-392 -253)"/><path id="_Path_2" data-name="Path 2" class="cls-1" d="M519.13 277v28.5a.86.86 0 0 1-.86.86h-1.67a.86.86 0 0 1-.86-.86V277a.86.86 0 0 1 .86-.86h1.67a.9.9 0 0 1 .86.86z" transform="translate(-392 -253)"/><path id="_Compound_Path_2" data-name="Compound Path 2" class="cls-1" d="M451.45 288v17.47a.86.86 0 0 1-.86.86h-1.67a.86.86 0 0 1-.86-.86v-1.13a10.09 10.09 0 1 1-7.47-17.6 10 10 0 0 1 7.47 2.57V288a.86.86 0 0 1 .86-.86h1.67a.9.9 0 0 1 .86.86zm-10.08 15.57a6.75 6.75 0 0 0 6.71-6.74 6.75 6.75 0 1 0-6.71 6.8z" transform="translate(-392 -253)"/><path id="_Compound_Path_3" data-name="Compound Path 3" class="cls-1" d="M543.25 288.13v17.47a.86.86 0 0 1-.86.86h-1.67a.86.86 0 0 1-.86-.86v-1.13a10.09 10.09 0 1 1-7.47-17.6 10 10 0 0 1 7.47 2.57v-1.31a.86.86 0 0 1 .86-.86h1.67a.9.9 0 0 1 .86.86zm-3.38 8.82a6.75 6.75 0 1 0-6.71 6.8 6.75 6.75 0 0 0 6.72-6.85z" transform="translate(-392 -253)"/><path id="_Compound_Path_4" data-name="Compound Path 4" class="cls-1" d="M547.71 305.5V277a.86.86 0 0 1 .86-.86h1.67a.86.86 0 0 1 .86.86v12.38a9.77 9.77 0 0 1 7.47-2.57 10.1 10.1 0 0 1-.77 20.16 9.86 9.86 0 0 1-6.71-2.57v1.13a.86.86 0 0 1-.86.86h-1.67a.9.9 0 0 1-.85-.89zm3.33-8.6a6.75 6.75 0 1 0 6.71-6.8 6.75 6.75 0 0 0-6.75 6.85z" transform="translate(-392 -253)"/><path id="_Path_3" data-name="Path 3" class="cls-1" d="M488.74 286.81a.8.8 0 0 1 .82.77v1.71a.84.84 0 0 1-.72.86 6.75 6.75 0 0 0-5.94 6.71v8.64a.86.86 0 0 1-.86.86h-1.67a.86.86 0 0 1-.86-.86V288a.86.86 0 0 1 .86-.86H482a.86.86 0 0 1 .86.86v1.31a9.78 9.78 0 0 1 5.76-2.52z" transform="translate(-392 -253)"/><path id="_Compound_Path_5" data-name="Compound Path 5" class="cls-1" d="M475.52 296.86v.77a.9.9 0 0 1-.9.9H459a6.75 6.75 0 0 0 6.48 5 6.61 6.61 0 0 0 4.64-1.85.9.9 0 0 1 1.22 0l1.17 1a.94.94 0 0 1 0 1.33 9.87 9.87 0 0 1-7.56 2.93 10.09 10.09 0 1 1 10.53-10.08zm-3.52-1.67a6.69 6.69 0 0 0-13 0z" transform="translate(-392 -253)"/></g></svg>