<svg id="Layer_1" data-name="Layer 1" xmlns="http://www.w3.org/2000/svg" viewBox="0 0 260.48 106.25"><defs><style>.cls-1{fill:#df9030}.cls-2{fill:#c92253}.cls-3{fill:#786f34}.cls-4{fill:#4b6aad}.cls-5{fill:#89bc50}.cls-6{fill:#89c8d9}.cls-7{fill:#eac834}.cls-8{fill:#8f509a}.cls-9{fill:#41522c}.cls-10{fill:#32539b}.cls-11{fill:#d1772e}.cls-12{fill:#801e3a}.cls-13{fill:#f2efe7}</style></defs><title>areatres</title><path class="cls-1" d="M543.42 283.14l-4 2.29a.82.82 0 1 1-.81-1.43l.73-.42a.83.83 0 0 1 .29-.27l3-1.61 1.19-.68L513 264.23a1.32 1.32 0 0 0-1.63 0L480.55 281l5.25 2.81a.82.82 0 0 1-.39 1.55.83.83 0 0 1-.39-.1l-5.38-2.88v33.45l1.34-.71 4-2.29a.82.82 0 0 1 .81 1.43l-.74.42a.86.86 0 0 1-.29.27l-3 1.61-1.19.68 30.79 16.8v-6.44a.82.82 0 1 1 1.64 0v6.47l30.83-16.82-5.25-2.81a.82.82 0 0 1 .78-1.45l5.38 2.88v-33.45z" transform="translate(-349.4 -227.82)"/><path class="cls-2" d="M608.54 283.14l-4 2.29a.82.82 0 1 1-.81-1.43l.73-.42a.8.8 0 0 1 .29-.27l3-1.61 1.19-.68-30.79-16.8a1.32 1.32 0 0 0-1.63 0L545.67 281l5.25 2.81a.82.82 0 0 1-.78 1.45l-5.38-2.88v33.45l1.34-.71 4-2.29a.82.82 0 0 1 .81 1.43l-.74.42a.89.89 0 0 1-.29.27l-3 1.61-1.19.68 30.79 16.8v-6.44a.82.82 0 1 1 1.64 0v6.47L609 317.25l-5.25-2.81a.82.82 0 0 1 .78-1.45l5.38 2.88v-33.45z" transform="translate(-349.4 -227.82)"/><path class="cls-3" d="M413.18 283.14l-4 2.29a.82.82 0 1 1-.81-1.43l.73-.42a.79.79 0 0 1 .29-.27l3-1.61 1.19-.68-30.79-16.8a1.32 1.32 0 0 0-1.63 0L350.31 281l5.25 2.81a.82.82 0 0 1 .34 1.11.82.82 0 0 1-1.11.34l-5.38-2.88v33.45l1.34-.71 4-2.29a.82.82 0 1 1 .81 1.43l-.73.42a.87.87 0 0 1-.29.27l-3 1.61-1.19.68 30.79 16.8v-6.44a.82.82 0 1 1 1.64 0v6.47l30.83-16.82-5.25-2.81a.82.82 0 0 1 .78-1.45l5.38 2.88v-33.45z" transform="translate(-349.4 -227.82)"/><path class="cls-4" d="M478.3 283.14l-4 2.29a.82.82 0 0 1-.81-1.43l.74-.42a.79.79 0 0 1 .29-.27l3-1.61 1.19-.68-30.79-16.8a1.32 1.32 0 0 0-1.63 0L415.43 281l5.25 2.81a.82.82 0 1 1-.78 1.45l-5.38-2.88v33.45l1.34-.71 4-2.29a.82.82 0 0 1 .81 1.43l-.73.42a.86.86 0 0 1-.29.27l-3 1.61-1.19.68 30.79 16.8v-6.44a.82.82 0 1 1 1.64 0v6.47l30.83-16.82-5.25-2.81a.82.82 0 0 1 .78-1.45l5.38 2.88v-33.45z" transform="translate(-349.4 -227.82)"/><path class="cls-5" d="M413.18 247l-4 2.29a.82.82 0 1 1-.81-1.43l.73-.42a.81.81 0 0 1 .29-.27l3-1.61 1.19-.67-30.79-16.8a1.32 1.32 0 0 0-1.64 0l-30.81 16.81 5.25 2.81a.82.82 0 1 1-.78 1.45l-5.38-2.88v33.45l1.34-.71 4-2.29a.82.82 0 1 1 .81 1.43l-.73.42a.82.82 0 0 1-.29.27l-3 1.61-1.19.68 30.79 16.8v-6.47a.82.82 0 0 1 1.64 0v6.47l30.83-16.82-5.25-2.81a.82.82 0 0 1 .39-1.55.81.81 0 0 1 .39.1l5.38 2.88v-33.47z" transform="translate(-349.4 -227.82)"/><path class="cls-6" d="M478.3 247l-4 2.29a.82.82 0 0 1-.81-1.43l.74-.42a.81.81 0 0 1 .29-.27l3-1.61 1.19-.67-30.79-16.8a1.32 1.32 0 0 0-1.64 0l-30.81 16.81 5.25 2.81a.82.82 0 1 1-.78 1.45l-5.38-2.88v33.45l1.34-.71 4-2.29a.82.82 0 0 1 .81 1.43l-.73.42a.81.81 0 0 1-.29.27l-3 1.61-1.19.68 30.79 16.8v-6.47a.82.82 0 0 1 1.64 0v6.47l30.83-16.82-5.25-2.81a.82.82 0 0 1 .39-1.55.81.81 0 0 1 .39.1l5.38 2.88v-33.47z" transform="translate(-349.4 -227.82)"/><path class="cls-7" d="M543.42 247l-4 2.29a.82.82 0 0 1-.81-1.43l.73-.42a.85.85 0 0 1 .29-.27l3-1.61 1.19-.67L513 228.08a1.32 1.32 0 0 0-1.64 0l-30.81 16.81 5.25 2.81a.82.82 0 1 1-.78 1.45l-5.38-2.88v33.45L481 279l4-2.29a.82.82 0 0 1 .81 1.43l-.74.42a.81.81 0 0 1-.29.27l-3 1.61-1.19.68 30.79 16.8v-6.47a.82.82 0 0 1 1.64 0v6.47l30.83-16.82-5.25-2.81a.82.82 0 0 1 .39-1.55.81.81 0 0 1 .39.1l5.38 2.88v-33.45z" transform="translate(-349.4 -227.82)"/><path class="cls-8" d="M608.54 247l-4 2.29a.82.82 0 0 1-.81-1.43l.73-.42a.82.82 0 0 1 .29-.27l3-1.61 1.19-.67-30.79-16.8a1.32 1.32 0 0 0-1.64 0L545.7 244.9l5.25 2.81a.82.82 0 1 1-.78 1.45l-5.38-2.88v33.45l1.34-.71 4-2.29a.82.82 0 0 1 .81 1.43l-.74.42a.83.83 0 0 1-.29.27l-3 1.61-1.19.68 30.79 16.8v-6.47a.82.82 0 0 1 1.64 0v6.47L609 281.1l-5.25-2.81a.82.82 0 0 1 .39-1.55.8.8 0 0 1 .39.1l5.38 2.88v-33.45z" transform="translate(-349.4 -227.82)"/><path class="cls-9" d="M382 290.62a.82.82 0 0 1 .82.82v6.47l26.31-14.35a.82.82 0 0 1 .28-.26l3-1.61 1.14-.65-5.16-2.76a.81.81 0 0 1-.29-.26l-25.29-13.8a1.32 1.32 0 0 0-1.63 0l-26.31 14.35a.82.82 0 0 1-.28.26l-3 1.61-1.14.65 5.16 2.77a.8.8 0 0 1 .29.26l25.29 13.8v-6.47a.82.82 0 0 1 .82-.82" transform="translate(-349.4 -227.82)"/><path class="cls-10" d="M447.08 290.62a.82.82 0 0 1 .82.82v6.47l26.31-14.35a.81.81 0 0 1 .28-.26l3-1.61 1.14-.65-5.16-2.76a.81.81 0 0 1-.29-.26l-25.29-13.8a1.32 1.32 0 0 0-1.63 0L420 278.58a.83.83 0 0 1-.28.26l-3 1.61-1.14.65 5.16 2.77a.8.8 0 0 1 .29.26l25.29 13.8v-6.47a.82.82 0 0 1 .82-.82" transform="translate(-349.4 -227.82)"/><path class="cls-11" d="M512.2 290.62a.82.82 0 0 1 .82.82v6.47l26.31-14.35a.8.8 0 0 1 .28-.26l3-1.61 1.14-.65-5.16-2.76a.83.83 0 0 1-.29-.26L513 264.23a1.32 1.32 0 0 0-1.63 0l-26.31 14.35a.8.8 0 0 1-.28.26l-3 1.61-1.14.65 5.16 2.77a.8.8 0 0 1 .29.26l25.29 13.8v-6.47a.82.82 0 0 1 .82-.82" transform="translate(-349.4 -227.82)"/><path class="cls-12" d="M577.32 290.62a.82.82 0 0 1 .82.82v6.47l26.31-14.35a.8.8 0 0 1 .28-.26l3-1.61 1.14-.65-5.16-2.76a.81.81 0 0 1-.29-.26l-25.29-13.8a1.32 1.32 0 0 0-1.63 0l-26.31 14.35a.82.82 0 0 1-.28.26l-3 1.61-1.14.65 5.16 2.77a.81.81 0 0 1 .29.26l25.29 13.8v-6.47a.82.82 0 0 1 .82-.82" transform="translate(-349.4 -227.82)"/><path class="cls-13" d="M394.66 276.79a1.61 1.61 0 0 1-.87.93 1.64 1.64 0 0 1-1.29.08 1.61 1.61 0 0 1-.95-.87l-3-6.45h-7.63a1.68 1.68 0 0 1-1.2-2.85 1.59 1.59 0 0 1 1.2-.5h6l-5.31-11.38-9.37 21.14a1.61 1.61 0 0 1-.64.74 1.76 1.76 0 0 1-.91.25 2.14 2.14 0 0 1-.68-.11 1.67 1.67 0 0 1-.89-.95 1.58 1.58 0 0 1 .06-1.29L380.09 251a1.53 1.53 0 0 1 .61-.72 1.66 1.66 0 0 1 .91-.27 1.77 1.77 0 0 1 .91.25 1.45 1.45 0 0 1 .61.7l11.46 24.52a1.6 1.6 0 0 1 .07 1.27m-1.5 12.25a1.63 1.63 0 0 1 .47 1.2 1.64 1.64 0 0 1-.47 1.18 1.59 1.59 0 0 1-1.2.49h-8.16v22.77a1.61 1.61 0 0 1-.48 1.19 1.75 1.75 0 0 1-2.4 0 1.57 1.57 0 0 1-.5-1.19v-22.75h-8.16a1.68 1.68 0 0 1-1.18-2.86 1.64 1.64 0 0 1 1.18-.48H392a1.63 1.63 0 0 1 1.2.48M456 277.9a1.79 1.79 0 0 1-1.33-.59l-8.15-9.08a1.79 1.79 0 0 1 1.12-3c.24 0 6.07-.81 6.07-5.68a6 6 0 0 0-5.45-5.86c-1.63 0-5.85 0-8.26.08v22.32a1.79 1.79 0 0 1-3.58 0V252a1.79 1.79 0 0 1 1.77-1.79c.31 0 7.72-.1 10.07-.1 3 0 9 2.85 9 9.44 0 4.69-3.19 7.24-6.16 8.43l6.2 6.91a1.79 1.79 0 0 1-1.33 3m.03 38.79a1.79 1.79 0 0 1-1.33-.59l-8.18-9.09a1.79 1.79 0 0 1 1.12-3c.24 0 6.07-.81 6.07-5.68a6 6 0 0 0-5.45-5.86c-1.63 0-5.85 0-8.26.07v22.37a1.79 1.79 0 0 1-3.58 0v-24.09a1.79 1.79 0 0 1 1.76-1.79c.31 0 7.72-.1 10.07-.1 3 0 9 2.85 9 9.44 0 4.69-3.19 7.24-6.16 8.43l6.2 6.91a1.79 1.79 0 0 1-1.33 3m64.62-41.7a1.68 1.68 0 0 1-1.18 2.87H505a1.63 1.63 0 0 1-1.19-.49 1.6 1.6 0 0 1-.5-1.18v-24.41a1.6 1.6 0 0 1 .5-1.18 1.63 1.63 0 0 1 1.19-.49h14.32a1.68 1.68 0 0 1 1.18 2.87 1.63 1.63 0 0 1-1.18.47h-12.58v8.88h5a1.67 1.67 0 0 1 0 3.34h-5v8.88h12.64a1.64 1.64 0 0 1 1.18.47m-.01 38.8a1.68 1.68 0 0 1-1.18 2.87H505a1.64 1.64 0 0 1-1.19-.49 1.59 1.59 0 0 1-.5-1.18v-24.45a1.6 1.6 0 0 1 .5-1.18 1.64 1.64 0 0 1 1.19-.49h14.32a1.68 1.68 0 0 1 1.18 2.87 1.63 1.63 0 0 1-1.18.47h-12.58v8.88h5a1.67 1.67 0 0 1 0 3.34h-5v8.88h12.64a1.63 1.63 0 0 1 1.18.47m69.53-37.03a1.6 1.6 0 0 1-.87.93 1.63 1.63 0 0 1-1.29.08 1.61 1.61 0 0 1-1-.87l-3-6.45h-7.63a1.68 1.68 0 0 1-1.2-2.85 1.6 1.6 0 0 1 1.2-.49h6l-5.31-11.39-9.37 21.14a1.62 1.62 0 0 1-.65.74 1.75 1.75 0 0 1-.91.25 2.15 2.15 0 0 1-.68-.11 1.68 1.68 0 0 1-.89-.95 1.59 1.59 0 0 1 .06-1.29L575.51 251a1.53 1.53 0 0 1 .61-.72 1.66 1.66 0 0 1 .91-.27 1.76 1.76 0 0 1 .91.25 1.42 1.42 0 0 1 .61.7L590 275.52a1.58 1.58 0 0 1 .08 1.27M578 316.68h-.64a12.07 12.07 0 0 1-3.54-.53 9.78 9.78 0 0 1-3.15-1.61 8.16 8.16 0 0 1-2.28-2.75 8.37 8.37 0 0 1-.87-3.94 1.6 1.6 0 0 1 .49-1.18 1.64 1.64 0 0 1 1.21-.5 1.69 1.69 0 0 1 1.67 1.67 5.29 5.29 0 0 0 .44 2.26 4.75 4.75 0 0 0 1.1 1.54 5.19 5.19 0 0 0 1.44.95 8.83 8.83 0 0 0 1.5.52 8.28 8.28 0 0 0 1.27.21H578a6.57 6.57 0 0 0 2-.34 6.89 6.89 0 0 0 1.86-1 5.44 5.44 0 0 0 1.37-1.42 3.18 3.18 0 0 0 .53-1.76 3.28 3.28 0 0 0-1.46-2.64 17.15 17.15 0 0 0-5-2.22l-.68-.23q-1.6-.57-3.25-1.21a13 13 0 0 1-3-1.59 8.26 8.26 0 0 1-2.14-2.25 5.85 5.85 0 0 1-.83-3.21 6.27 6.27 0 0 1 .7-2.94 7.24 7.24 0 0 1 2-2.33 9.49 9.49 0 0 1 3-1.54 12 12 0 0 1 3.69-.55q1 0 2.23.11a11.49 11.49 0 0 1 2.4.49 9.7 9.7 0 0 1 2.32 1.1 7.42 7.42 0 0 1 2 1.94c.15.23.32.51.5.83a7.61 7.61 0 0 1 .46 1c.13.36.23.7.32 1a3.26 3.26 0 0 1 .13.87 1.68 1.68 0 0 1-2.88 1.18 1.6 1.6 0 0 1-.5-1.18 6.75 6.75 0 0 0-.29-.82 4.93 4.93 0 0 0-.51-1q-1.56-2.24-6.19-2.24a8.71 8.71 0 0 0-2.14.26 7 7 0 0 0-1.9.78 4.37 4.37 0 0 0-1.37 1.25 3 3 0 0 0-.51 1.73 2.86 2.86 0 0 0 .48 1.65 4.81 4.81 0 0 0 1.37 1.29 11.32 11.32 0 0 0 2.19 1.08q1.29.5 2.89 1.06l.65.23q1.14.38 2.64.93a13 13 0 0 1 2.86 1.48 8.82 8.82 0 0 1 2.28 2.3 5.78 5.78 0 0 1 .93 3.34 6.27 6.27 0 0 1-.82 3.15 8.58 8.58 0 0 1-2.13 2.48 10.17 10.17 0 0 1-6.22 2.18" transform="translate(-349.4 -227.82)"/></svg>