<svg id="Layer_1" data-name="Layer 1" xmlns="http://www.w3.org/2000/svg" viewBox="0 0 544.73 185.42"><defs><style>.cls-1{fill:#313230}.cls-2{fill:#fff}.cls-3{fill:none;stroke:#313230;stroke-miterlimit:10;stroke-width:2px}</style></defs><title>banode3123</title><path class="cls-1" d="M450.8 665.75a5.37 5.37 0 0 1 2.32.51 5.78 5.78 0 0 1 1.86 1.37 6.45 6.45 0 0 1 1.22 2 6.8 6.8 0 0 1 .44 2.47 6.39 6.39 0 0 1-.85 3.39 5.5 5.5 0 0 1-2 2 7.67 7.67 0 0 1 2.48.71 6.65 6.65 0 0 1 2 1.49 6.91 6.91 0 0 1 1.34 2.18 7.5 7.5 0 0 1 .5 2.77 7.62 7.62 0 0 1-.53 2.84 7.55 7.55 0 0 1-1.47 2.35 6.88 6.88 0 0 1-2.21 1.6 6.47 6.47 0 0 1-2.72.58h-4.28v-26.26zm-1 11.71h1a4.58 4.58 0 0 0 1.93-.41 4.8 4.8 0 0 0 1.56-1.13 5.54 5.54 0 0 0 1-1.67 5.41 5.41 0 0 0 .39-2.05 5.89 5.89 0 0 0-.37-2.11 5.5 5.5 0 0 0-1-1.73 5.07 5.07 0 0 0-1.56-1.19 4.38 4.38 0 0 0-1.95-.43h-1zm0 13.63h3.36a5.49 5.49 0 0 0 2.34-.51 6.13 6.13 0 0 0 1.91-1.37 6.74 6.74 0 0 0 1.31-7 6.19 6.19 0 0 0-1.27-2 5.78 5.78 0 0 0-1.91-1.32 6 6 0 0 0-2.37-.47h-3.36zm43.04-6.56a8 8 0 0 1-.57 3 7.52 7.52 0 0 1-3.84 4.08 6.48 6.48 0 0 1-2.78.6 6.84 6.84 0 0 1-2.9-.62 7.84 7.84 0 0 1-2.35-1.66 7.47 7.47 0 0 1-1.57-2.43 7.82 7.82 0 0 1-.57-3v-18.75h.92v18.78a6.91 6.91 0 0 0 1.86 4.72 6.28 6.28 0 0 0 2.05 1.45 6.16 6.16 0 0 0 2.53.53 5.75 5.75 0 0 0 2.42-.53 6.39 6.39 0 0 0 2-1.45 6.91 6.91 0 0 0 1.86-4.72v-18.78h.92zm19.96-7.07h7.68v1h-7.68v12.65h8.81v1h-9.73v-26.36h9.73v1h-8.81zm44.52 14.6l-16.45-24.54v24.54h-.92v-26.31h.88l16.31 24.36v-24.36h.92v26.31zm19.87-18.31a13.41 13.41 0 0 1 2.67-4.24 12.73 12.73 0 0 1 4-2.86 11.76 11.76 0 0 1 9.73 0 12.73 12.73 0 0 1 4 2.86 13.84 13.84 0 0 1 0 18.82 12.49 12.49 0 0 1-4 2.84 12 12 0 0 1-9.73 0 12.49 12.49 0 0 1-4-2.84 13.41 13.41 0 0 1-2.67-4.24 14.26 14.26 0 0 1 0-10.35zm.9 9.94a12.64 12.64 0 0 0 2.48 3.9 11.8 11.8 0 0 0 3.66 2.63 10.85 10.85 0 0 0 9 0 11.74 11.74 0 0 0 3.68-2.63 12.63 12.63 0 0 0 2.48-3.9 12.83 12.83 0 0 0-2.48-13.5 11.75 11.75 0 0 0-3.68-2.63 10.85 10.85 0 0 0-9 0 11.81 11.81 0 0 0-3.66 2.63 12.88 12.88 0 0 0-2.48 13.5zm52.2 1.41a7.36 7.36 0 0 1-2 5 6.8 6.8 0 0 1-2.12 1.52 6.21 6.21 0 0 1-2.64.56 5.71 5.71 0 0 1-3.22-1 7.78 7.78 0 0 1-2.37-2.47l.81-.64a9.26 9.26 0 0 0 2 2.17 4.36 4.36 0 0 0 2.81.92 5.52 5.52 0 0 0 2.26-.47 5.62 5.62 0 0 0 1.84-1.3 6.39 6.39 0 0 0 1.7-4.37 5.93 5.93 0 0 0-.8-3.12 6 6 0 0 0-2-2.07l-4.71-2.82a5.88 5.88 0 0 1-2.11-2.2 6.49 6.49 0 0 1-.83-3.29 6.26 6.26 0 0 1 .44-2.37 6.09 6.09 0 0 1 1.2-1.9 5.39 5.39 0 0 1 1.8-1.26 5.61 5.61 0 0 1 2.25-.45 5.51 5.51 0 0 1 2.34.49 6.71 6.71 0 0 1 1.88 1.28l-.67.72a5.09 5.09 0 0 0-1.65-1.03 4.79 4.79 0 0 0-1.91-.4 4.7 4.7 0 0 0-1.89.38 4.64 4.64 0 0 0-1.5 1 4.87 4.87 0 0 0-1 1.58 5.34 5.34 0 0 0-.37 2 5.81 5.81 0 0 0 .6 2.63 4.46 4.46 0 0 0 1.63 1.84l4.78 2.9a6.76 6.76 0 0 1 3.45 6.17zm42.32-3.84l-3.61 10.8h-1q2.3-6.78 4.53-13.17t4.47-13.14h.81l8.78 26.31h-1l-3.59-10.8zm4.78-14.12L673 680.28h8.7zm26.4 24.92v-26.31h.92v26.31zm28.38-17.47a6.1 6.1 0 0 1-1.27 2 6 6 0 0 1-1.91 1.34 5.75 5.75 0 0 1-2.37.49h-.78l8.16 13.64h-1.1l-8.24-13.78v13.78h-.92v-26.31h3a5.18 5.18 0 0 1 2.26.51 6 6 0 0 1 1.86 1.37 6.47 6.47 0 0 1 1.26 2 6.59 6.59 0 0 1 .46 2.45 6.69 6.69 0 0 1-.41 2.51zm-3.5 2.43a5.07 5.07 0 0 0 1.59-1.17 5.62 5.62 0 0 0 1.06-1.69 5.4 5.4 0 0 0 .39-2.05 5.64 5.64 0 0 0-.39-2.11 5.72 5.72 0 0 0-1-1.71 4.68 4.68 0 0 0-1.56-1.15 4.57 4.57 0 0 0-1.93-.41h-2.12v10.73h2a4.68 4.68 0 0 0 1.96-.46zm23.46.44h7.68v1h-7.68v12.65h8.81v1h-9.73v-26.36h9.73v1h-8.81zm38.04 7.64a7.36 7.36 0 0 1-2 5 6.8 6.8 0 0 1-2.12 1.52 6.21 6.21 0 0 1-2.64.56 5.71 5.71 0 0 1-3.22-1 7.78 7.78 0 0 1-2.37-2.47l.81-.64a9.26 9.26 0 0 0 2 2.17 4.36 4.36 0 0 0 2.81.92 5.52 5.52 0 0 0 2.26-.47 5.62 5.62 0 0 0 1.84-1.3 6.39 6.39 0 0 0 1.7-4.37 5.93 5.93 0 0 0-.8-3.12 6 6 0 0 0-2-2.07l-4.71-2.82a5.88 5.88 0 0 1-2.11-2.2 6.49 6.49 0 0 1-.83-3.29 6.26 6.26 0 0 1 .44-2.37 6.09 6.09 0 0 1 1.2-1.9 5.39 5.39 0 0 1 1.8-1.26 5.61 5.61 0 0 1 2.25-.45 5.51 5.51 0 0 1 2.34.49 6.71 6.71 0 0 1 1.88 1.28l-.67.72a5.09 5.09 0 0 0-1.63-1.11 4.79 4.79 0 0 0-1.91-.4 4.7 4.7 0 0 0-1.89.38 4.64 4.64 0 0 0-1.5 1 4.87 4.87 0 0 0-1 1.58 5.34 5.34 0 0 0-.37 2 5.81 5.81 0 0 0 .6 2.63 4.46 4.46 0 0 0 1.63 1.84l4.78 2.9a6.76 6.76 0 0 1 3.43 6.25zm-94.59-50.46a37.08 37.08 0 0 1-8.29 7.08 41.87 41.87 0 0 1-10.08 4.56 39 39 0 0 1-26.59-1.5 40.06 40.06 0 0 1-12.62-8.65 40.72 40.72 0 0 1-8.53-12.83 41.09 41.09 0 0 1 0-31.32 40.72 40.72 0 0 1 8.53-12.81 40 40 0 0 1 12.64-8.65A39 39 0 0 1 677.2 569a40.18 40.18 0 0 1 10.08 4.64 38.9 38.9 0 0 1 8.29 7.16 42.4 42.4 0 0 1 6.13 9.2v-65.13h4V647.3h-4v-21.87a42.4 42.4 0 0 1-6.12 9.21zm-62.41-12.9a36.82 36.82 0 0 0 7.67 11.49 36.21 36.21 0 0 0 11.32 7.77 34 34 0 0 0 13.84 2.84 35.44 35.44 0 0 0 24.81-10.07 36.53 36.53 0 0 0 7.67-11 36 36 0 0 0 3.18-13.53v-1.57a35.45 35.45 0 0 0-2.79-14.08 36.82 36.82 0 0 0-7.67-11.49 36.24 36.24 0 0 0-11.32-7.79 35.4 35.4 0 0 0-27.75 0 36.22 36.22 0 0 0-11.32 7.79 36.82 36.82 0 0 0-7.67 11.49 36.93 36.93 0 0 0 0 28.17zM538.53 592a40.72 40.72 0 0 1 8.53-12.83 40 40 0 0 1 12.64-8.65 39.38 39.38 0 0 1 30.85 0 40.06 40.06 0 0 1 12.64 8.65 40.73 40.73 0 0 1 8.52 12.83 41.09 41.09 0 0 1 0 31.32 40.73 40.73 0 0 1-8.53 12.83 40.07 40.07 0 0 1-12.64 8.66 39.38 39.38 0 0 1-30.85 0 40.06 40.06 0 0 1-12.64-8.66 40.72 40.72 0 0 1-8.53-12.83 41.09 41.09 0 0 1 0-31.32zm3.72 29.74a36.82 36.82 0 0 0 7.67 11.49 36.21 36.21 0 0 0 11.32 7.77 35.4 35.4 0 0 0 27.76 0 36.23 36.23 0 0 0 11.32-7.79 36.82 36.82 0 0 0 7.68-11.48 36.93 36.93 0 0 0 0-28.17 36.82 36.82 0 0 0-7.67-11.49 36.24 36.24 0 0 0-11.33-7.78 35.4 35.4 0 0 0-27.75 0 36.22 36.22 0 0 0-11.32 7.79 36.82 36.82 0 0 0-7.67 11.49 36.93 36.93 0 0 0 0 28.17zM468.46 573a35.37 35.37 0 0 1 16.75-3.73 38.44 38.44 0 0 1 13 2.13 34.15 34.15 0 0 1 10.36 5.72 27.37 27.37 0 0 1 6.87 8.31 21.1 21.1 0 0 1 2.52 10.06v51.22h-5v-51.27a17.57 17.57 0 0 0-2.23-8.61 23.9 23.9 0 0 0-6-7.09 28.89 28.89 0 0 0-8.91-4.8 33 33 0 0 0-10.82-1.76 34.21 34.21 0 0 0-11.13 1.75 28.56 28.56 0 0 0-8.81 4.73 21.76 21.76 0 0 0-5.71 6.86 17.37 17.37 0 0 0-2 8.16v52h-5v-76.85h5v11.89a35.18 35.18 0 0 1 11.11-8.72zm285.43 67.49a37 37 0 0 0 19-1.06 37.63 37.63 0 0 0 21.88-17.82 29.56 29.56 0 0 0 3.12-8.53l3.92.58a37.68 37.68 0 0 1-9.48 17.92A41 41 0 0 1 774 643a41.66 41.66 0 0 1-15.62 1.87A40.53 40.53 0 0 1 744 641.1a37 37 0 0 1-11.62-8.58 34.1 34.1 0 0 1-8.46-27.16 37 37 0 0 1 4.7-13.66 40.55 40.55 0 0 1 9.76-11.27 41.67 41.67 0 0 1 13.92-7.33 41.22 41.22 0 0 1 10.89-1.89 43.4 43.4 0 0 1 10.54.91 37.8 37.8 0 0 1 9.71 3.49 38.42 38.42 0 0 1 8.22 5.75l-53.55 51.26a33.78 33.78 0 0 0 15.78 7.87zm-18.6-10.6l50.44-48.19a36.71 36.71 0 0 0-32.34-5.05 37.19 37.19 0 0 0-12.52 6.59 36.65 36.65 0 0 0-8.73 10.13 33.43 33.43 0 0 0-4.24 12.25 29.61 29.61 0 0 0 1.13 13 30.91 30.91 0 0 0 6.26 11.27z" transform="translate(-257.13 -524.87)"/><path class="cls-1" d="M0 48.7L78.94 3.13l78.93 45.57v91.15l-78.93 45.57L0 139.85V48.7z"/><path class="cls-2" d="M21.3 60.16l57.64-33.32 57.63 33.32v90.57l-57.63 32.94-57.64-32.94V60.16z"/><path class="cls-1" d="M79.13 57.09l33.72 19.65v39.99l-34.11 19.21-33.72-19.21V76.35l34.11-19.26z"/><path class="cls-3" d="M78.94 183.67v-47.94m33.91-58.99l23.72-16.58M45.02 76.35L21.3 60.16"/><path class="cls-2" d="M314.14 629.49l5-3c1 1.7 1.83 3.13 3.92 3.13s3.27-.78 3.27-3.83v-20.72h6.09v20.81c0 6.31-3.7 9.19-9.1 9.19a9.46 9.46 0 0 1-9.18-5.58zm21.55-.65l5-2.87c1.31 2.13 3 3.7 6 3.7 2.52 0 4.14-1.26 4.14-3 0-2.09-1.65-2.83-4.44-4l-1.52-.65c-4.4-1.87-7.31-4.22-7.31-9.19 0-4.57 3.48-8.05 8.92-8.05 3.87 0 6.66 1.35 8.66 4.88l-4.75 3c-1-1.87-2.18-2.61-3.92-2.61a2.65 2.65 0 0 0-2.92 2.61c0 1.83 1.13 2.57 3.74 3.7l1.52.65c5.18 2.22 8.1 4.48 8.1 9.58 0 5.49-4.31 8.49-10.1 8.49s-9.33-2.72-11.12-6.24z" transform="translate(-257.13 -524.87)"/></svg>