<svg id="Layer_1" data-name="Layer 1" xmlns="http://www.w3.org/2000/svg" viewBox="0 0 4535.43 694.57"><defs><style>.cls-1,.cls-2{fill:#262424;fill-rule:evenodd}.cls-2{fill:#88c3ad}</style></defs><title>coderhouse</title><path class="cls-1" d="M2421.87 913.34c-10.35 7.35-17.64 10.22-21.38 15.58-52.11 74.28-163.48 67.64-202.81-15.51-15.95-33.73-24.54-73.64-25.55-111-1.47-53.87.55-109.55 12.9-161.62C2203 565 2268.86 530.43 2344 551.69c19.87 5.62 36.12 24.13 53.86 37 7 5.06 13.43 10.86 22.34 18.16 0-57-.13-107.52.06-158 .11-30.63 10.39-42.59 35.59-42.46 27.34.14 37.87 11.94 37.9 43.67q.16 236.91.07 473.81c0 43.07-8.27 54.26-38.92 53.06-29.02-1.11-35.67-11.93-33.03-63.59zm2.13-150.86c-5.2-32.84-7.48-65.83-16.13-97.06-11.49-41.48-40.35-59.83-81.57-58.62-38.8 1.17-69.38 21.66-73.21 64a1007.44 1007.44 0 0 0 .19 184.2c4 42.27 34.87 62.82 73.37 63.72 41.23.94 69.8-17.64 81.15-59.21 8.5-31.29 10.93-64.26 16.2-97.03zm911.84-136.14c11.71-11.41 19.65-16.29 23.45-23.39 25.29-47.11 66.36-61.75 116.13-56 48.92 5.64 80.6 33.18 92.4 81.62 3.74 15.4 7.81 31.27 8 47q1.35 132.53.6 265.1c-.09 26.44-13 37.59-38.85 36.68-24.2-.87-35.07-13.09-34.88-37.66.55-76.14.3-152.28.07-228.42 0-14-.46-28.25-2.53-42.11-5.47-36.37-21.55-55.8-49-61.16-35.45-7-70.79 4.24-83.75 36.55a372 372 0 0 0-25.73 110.9c-4.17 59.84-1 120.24-1.31 180.39-.14 30.75-9.85 41.42-36.49 41.45C3277 977.22 3267 966.68 3267 936q-.27-243.95 0-487.85c0-30 10.68-41.66 36.7-41.88 25.68-.19 37.15 11.84 36.59 41.63-.81 45-2.95 90.06-4.35 135.11-.41 11.09-.1 22.2-.1 43.33zM1765.27 771.35c3.56-35.38 3.48-71.56 11.37-105.95 18.59-81.4 69.36-119.05 153.78-119.6 87.32-.57 139.3 35.49 158.49 117.34 15.57 66.31 16 134.75-.44 201.06-21.2 85.41-81.28 122.51-176.94 115-78.27-6.16-130.81-58.37-139.91-140.06-2.5-22.38-3-45-4.33-67.45zm74.4-8.87c3.39 33.66 3.5 67 10.7 98.62 9.68 42.52 37 59.89 83.22 60.23 43.49.32 76.82-17.41 80.61-58.66a1066.47 1066.47 0 0 0-.51-200.87c-4-41.15-36.73-57.83-81.27-57.6-44.18.23-72 17.56-81.49 58.59-7.55 32.54-7.81 66.75-11.27 99.69zM3667 771.35c3.54-35.38 3.49-71.56 11.34-105.92 18.62-81.37 69.35-119.08 153.8-119.63 87.32-.57 139.28 35.45 158.51 117.31 15.57 66.34 16 134.75-.42 201.09-21.17 85.39-81.3 122.48-176.93 115-78.28-6.14-130.84-58.35-139.94-140.06-2.49-22.36-2.95-44.93-4.34-67.45-.68-.09-1.37-.22-2.02-.34zm74.4-8.32c3.39 33.41 3.52 66.7 10.77 98.32 9.72 42.44 37.28 59.78 83.44 60 43.47.19 76.49-17.59 80.47-58.93a1066.35 1066.35 0 0 0 .38-198.31c-3.82-41.59-35.83-59.23-79.76-59.92-45.39-.71-74.36 17-84.09 58.87-7.61 32.52-7.79 66.77-11.23 99.94zm585.99 138.14c-10.39 9.08-18 13-21.51 19.2-27.08 47.66-64 66.33-116.52 57.77-53.76-8.76-87.33-38.63-92.71-94.22-5.84-60.54-4.59-121.78-5.75-182.73-.71-37.6-.39-75.18 0-112.78.27-29.26 11.75-41.56 37.85-40.51 25.13 1 36.23 13.91 36 39.82-.84 77.06-.35 154.13-.23 231.19 0 12.19-.33 24.56 1.33 36.59 5 36.09 22.94 57.19 51.65 62.32 35.54 6.38 70.52-5.51 82.69-38.23a426.23 426.23 0 0 0 25.39-116.72c4.2-58 .95-116.47 1.38-174.73.2-29.3 11.49-40.83 37.9-40.46 24 .32 35.57 12.65 35.64 40.39q.38 174.81 0 349.58c-.07 28.76-12.35 40.51-38.91 39.66-25.52-.83-34.89-12.05-34.12-40.46.16-9.19-.08-18.4-.08-35.68zM2665.5 782c0 21.28-1.88 38.3.35 54.78 7 51.7 30.68 74.47 82.59 78.31 29.91 2.25 60.08 1.22 90.11 1.26 20 0 33.09 7.62 32.56 29.38-.55 21.26-13.38 29.19-33.47 28.94-30-.39-60.12.3-90.17-.32-94.3-2-147.71-48.53-155-142.93a810.84 810.84 0 0 1 3.94-162.82c10.77-85.92 67.8-127.07 159-122.51 74.27 3.71 128.36 59 133.65 137.43 1.29 18.72 1.42 37.55 1.08 56.31-.59 31.74-10.34 41.61-42.77 42-49.76.58-99.55.17-149.34.19zm150.73-51.85c-1.06-44.87 6.34-90-36.76-117-26.42-16.55-57.49-16-82.32 3.16-37.4 28.89-32.67 71.76-32.89 113.83zM4877.63 782c0 21.4-1.9 38.45.32 54.95 7 51.59 30.8 74.35 82.76 78.19 29.88 2.2 60.08 1.17 90.12 1.22 20 0 33 7.84 32.38 29.55-.5 19.38-11.57 28.73-30.8 28.62-35.7-.2-71.49 1.24-107.06-.94-83.73-5.11-132.9-51.21-140.46-139.56-4.67-54.76-3.13-111 3.65-165.59 10.66-85.87 67.91-127 159.13-122.35 74.23 3.78 128.22 59.16 133.51 137.59 1.21 18.72 1.39 37.55 1 56.32-.58 31.64-10.41 41.45-42.92 41.84-49.77.55-99.58.14-149.37.16zm150-52.1c.27-43.42 6.44-87-34.19-116.12-23-16.45-64.59-14.76-85.09 2.77-35.88 30.61-31.81 72.2-32.2 113.35zM4571.2 974.59c-16.92 0-33.8-.27-50.71 0-20.67.34-35.15-5.91-34.87-29.9.28-22.5 14.16-28.39 33.5-28.37 27.24.09 54.49.64 81.7-.37 25.29-1 48.94-5.8 57.26-35.42 7.65-27.31-.14-48.35-27.41-67.44-30-20.94-61.22-40-90.62-61.77-45.25-33.43-61.66-80.77-46.69-128.31 13.56-43.08 57.56-71.05 113.26-71.79 23.48-.27 46.94.44 70.4-.23 20.83-.62 38.73 2.61 39.3 28.37.67 28.25-19.18 29.83-40.53 29.7-23.44-.14-47.68-2.55-70.05 2.66-15 3.51-32.65 15.77-39.48 29.06-10 19.36-2.91 41 16.29 54.65 28.21 20.13 57.22 39.16 85.92 58.63 36.45 24.67 64.25 55 65.65 102.09 1.92 65.09-41.09 113-106.62 117.7-18.67 1.38-37.55.2-56.31.2zM1640.09 551.25h36.59c18.45 0 27.45 9.45 28 27.75.59 19.75-8.62 29.42-28.51 29.95-21.54.53-43.23.55-64.52 3.32-41.93 5.48-67.06 26.45-70.16 68a1109.42 1109.42 0 0 0-.23 162.59c3.25 44.52 28.79 65.58 73.87 70.8 20.41 2.39 41.17 2.09 61.8 2.8 18 .66 27.83 9 27.83 27.82 0 19.36-8.68 30.22-28.64 30.15-24.42-.09-49 1.29-73.18-1.14-70.88-7.17-113.51-43-130.77-112-16.19-64.63-16.7-130.44-.54-195.12 19-75.93 67.84-113 145.93-114.86 7.51-.18 15 0 22.55 0zm1422.43 69.18c5.9-6.42 13.62-12 17.43-19.43 19.19-37.88 49.67-56.69 87.3-53.57 21.48 1.78 28.72 13.93 28.55 33.8-.19 19.54.11 37.89-26 42-85.41 13.31-108.26 38.48-110.78 126-1.8 62.83-.35 125.77-.81 188.64-.23 31.18-13.42 41.79-44.06 38.56-19.46-2-29.09-12.67-29.14-31.14q-.44-183 0-366.07c0-24.89 17.94-31.46 38.34-31 21.26.46 36.24 9.9 34.71 34.46-.67 10.24-2 20.46-2.92 30.7 2.46 2.32 4.94 4.71 7.38 7.05z" transform="translate(-566.93 -338.46)"/><path class="cls-2" d="M1052 722.07a62.86 62.86 0 0 0-62.87 62.87c0 90.39-5.55 169.73-151 169.73C690.44 954.67 683 865.5 683 784.94c0-34.73-24.88-62.87-59.6-62.87-33.73 0-44.16 26.59-43.08 60 1.65 50.91 31.23 132.18 59.84 202.91 21.75 53.7 103.7 47.91 197.73 47.91 88.48 0 168.77.62 191.66-47.91 33.2-70.34 64.69-141.08 64.69-211.12-.03-29.92-11.24-51.79-42.24-51.79zm-422.24-77.98A62.74 62.74 0 0 0 681.37 617h.44s92.43-174.2 154.65-174.23 154.73 174.28 154.73 174.28h.51a62.73 62.73 0 0 0 51.61 27.05c34.71 0 62.84-25.32 62.84-60 0-16.54-6.44-28.18-16.88-39.91h.08l-.37-3.07c-2.65-2.82-212.07-189.23-212.07-189.23-1.85-1.83-11-13.41-39.92-13.41-22.61 0-37.33 10.48-40.82 14v.62c-.14 0-209.35 185.16-212 188l-.37 3.16h.08C573.43 555.99 567 567.64 567 584.17c-.07 34.6 28.05 59.92 62.76 59.92z" transform="translate(-566.93 -338.46)"/></svg>