<svg id="Layer_1" data-name="Layer 1" xmlns="http://www.w3.org/2000/svg" viewBox="0 0 238.08 101.83"><defs><style>.cls-1,.cls-2{fill:#fff;stroke:#000;stroke-width:2px}.cls-1{stroke-linejoin:round}.cls-3{fill:#c12c32}</style></defs><title>ekospace</title><path class="cls-1" d="M599 245.18v57a6.76 6.76 0 0 1-1.69 5 6.54 6.54 0 0 1-4.82 2.1l-56.58.21c-2 0-3.31-1.11-4.63-2.41a20.87 20.87 0 0 1-1.95-4.62c0-.23-.33-57.26-.33-57.26a7 7 0 0 1 2-5 5.92 5.92 0 0 1 4.48-2.08c3.91 0 6.53 3.18 6.53 7.11V294h44v-41H558.5a7.44 7.44 0 0 1-5-2.42 7.71 7.71 0 0 1-2.07-5.26 7.28 7.28 0 0 1 7.07-7.32h34c3.89 0 6.5 3.26 6.5 7.18z" transform="translate(-361.92 -237)"/><path class="cls-2" d="M512.22 299.24l-13-13.07a3.67 3.67 0 0 0-5.2 0l-4.85 4.83a3.7 3.7 0 0 0 0 5.22l13 13.07a3.67 3.67 0 0 0 5.2 0l4.83-4.85a3.7 3.7 0 0 0 .02-5.2zm-1.12-48.68l-44.31 56.66c-2.11 2.68-8.81 2-8.48 2a6.94 6.94 0 0 1-6.31-7.09v-57a7 7 0 0 1 1.86-5 6 6 0 0 1 4.54-2.08c3.91 0 6.6 3.18 6.6 7.11V285l34.31-43.4a7.32 7.32 0 0 1 10.16-1.2l.33.17a7.16 7.16 0 0 1 1.3 9.99z" transform="translate(-361.92 -237)"/><rect class="cls-2" x="1" y="58.88" width="70.93" height="14.24" rx="3.67" ry="3.67"/><rect class="cls-2" x="1" y="30.84" width="70.93" height="14.24" rx="3.67" ry="3.67"/><rect class="cls-2" x="1" y="2.79" width="70.93" height="14.24" rx="3.67" ry="3.67"/><path class="cls-3" d="M378.48 338.6h-1.93v-7.83h-8.73v7.83h-1.93V322h1.93v7h8.73v-7h1.93v16.6zm22.76 0l-2.06-5.29h-6.64l-2 5.29h-2l6.55-16.7h1.62l6.52 16.7h-2zm-2.66-7l-1.93-5.15q-.37-1-.77-2.4a21.65 21.65 0 0 1-.71 2.4l-1.95 5.15h5.36zm21.84-8.14a5.41 5.41 0 0 0-4.31 1.83 7.38 7.38 0 0 0-1.58 5 7.53 7.53 0 0 0 1.53 5 5.41 5.41 0 0 0 4.35 1.78 14.81 14.81 0 0 0 4-.63v1.7a12.14 12.14 0 0 1-4.25.65 7.18 7.18 0 0 1-5.65-2.23 9.2 9.2 0 0 1-2-6.34 10 10 0 0 1 1-4.51 6.89 6.89 0 0 1 2.77-3 8.35 8.35 0 0 1 4.26-1 10.23 10.23 0 0 1 4.56 1l-.82 1.66a8.76 8.76 0 0 0-3.86-.91zm27.32 15.14h-2.27l-6-8.07-1.73 1.55v6.52h-1.93V322h1.93v8.25l7.52-8.25h2.28l-6.67 7.22zm19.32 0h-9.24V322h9.24v1.72h-7.31V329h6.87v1.71h-6.87v6.12h7.31v1.73zm13.41-6.91v6.92h-1.93V322h4.55a7.14 7.14 0 0 1 4.51 1.17 4.25 4.25 0 0 1 1.46 3.53 4.42 4.42 0 0 1-3.33 4.46l4.5 7.48h-2.28l-4-6.92h-3.46zm0-1.66h2.64a4.55 4.55 0 0 0 3-.81 3 3 0 0 0 1-2.44 2.78 2.78 0 0 0-1-2.38 5.24 5.24 0 0 0-3.11-.73h-2.51V330zm29.53 4.15a4.09 4.09 0 0 1-1.59 3.42 6.86 6.86 0 0 1-4.31 1.23 10.74 10.74 0 0 1-4.54-.76v-1.87a11.92 11.92 0 0 0 2.22.68 11.64 11.64 0 0 0 2.38.25 4.79 4.79 0 0 0 2.9-.73 2.41 2.41 0 0 0 1-2 2.63 2.63 0 0 0-.35-1.42 3.22 3.22 0 0 0-1.16-1 16.16 16.16 0 0 0-2.47-1.06 7.86 7.86 0 0 1-3.3-2 4.36 4.36 0 0 1-1-3 3.7 3.7 0 0 1 1.44-3.06 6 6 0 0 1 3.81-1.14 11.2 11.2 0 0 1 4.55.91l-.6 1.68a10.25 10.25 0 0 0-4-.86 3.85 3.85 0 0 0-2.39.66 2.18 2.18 0 0 0-.86 1.83 2.81 2.81 0 0 0 .32 1.42 3 3 0 0 0 1.07 1 13.35 13.35 0 0 0 2.31 1 9.12 9.12 0 0 1 3.59 2 4 4 0 0 1 .98 2.82zm21.75-7.36a4.67 4.67 0 0 1-1.75 3.88 7.76 7.76 0 0 1-4.92 1.36h-2v6.54h-1.93V322h4.3q6.3 0 6.3 4.82zm-8.58 3.58h1.74a6.43 6.43 0 0 0 3.71-.83 3.06 3.06 0 0 0 1.15-2.66 2.87 2.87 0 0 0-1.08-2.46 5.61 5.61 0 0 0-3.36-.81h-2.15v6.76zm30.27 8.2l-2.06-5.29h-6.64l-2 5.29h-2l6.55-16.7h1.62l6.52 16.7h-2zm-2.66-7l-1.93-5.15q-.37-1-.77-2.4a21.87 21.87 0 0 1-.71 2.4l-2 5.15h5.36zm21.83-8.14a5.41 5.41 0 0 0-4.31 1.83 7.38 7.38 0 0 0-1.58 5 7.53 7.53 0 0 0 1.53 5 5.41 5.41 0 0 0 4.35 1.78 14.81 14.81 0 0 0 4-.63v1.7a12.14 12.14 0 0 1-4.25.65 7.18 7.18 0 0 1-5.65-2.23 9.2 9.2 0 0 1-2-6.34 10 10 0 0 1 1-4.51 6.89 6.89 0 0 1 2.77-3 8.35 8.35 0 0 1 4.26-1 10.24 10.24 0 0 1 4.56 1l-.82 1.66a8.76 8.76 0 0 0-3.86-.91zm24.6 15.14H588V322h9.24v1.72h-7.31V329h6.87v1.71h-6.87v6.12h7.31v1.73z" transform="translate(-361.92 -237)"/></svg>