<svg width="106" height="58" viewBox="0 0 106 58" xmlns="http://www.w3.org/2000/svg"><title>Logo</title><g fill="none" fill-rule="evenodd"><path d="M1.087 3.908v4.467h.07a6.65 6.65 0 0 1 .777-1.934A6.358 6.358 0 0 1 3.24 4.893a5.958 5.958 0 0 1 1.713-1.038 5.39 5.39 0 0 1 1.995-.37c1.412-.046 2.596.312 3.55 1.073.952.763 1.582 1.812 1.888 3.148h.071c.352-1.265 1.047-2.285 2.083-3.059 1.036-.774 2.26-1.161 3.672-1.161 1.107 0 2.025.165 2.755.492.73.329 1.318.78 1.766 1.354.447.576.764 1.267.953 2.076.188.809.282 1.706.282 2.69v11.89h-.706v-11.89c0-.89-.077-1.7-.23-2.427-.153-.726-.423-1.347-.811-1.864-.389-.515-.907-.914-1.554-1.196-.648-.28-1.466-.422-2.455-.422-.87 0-1.659.17-2.365.51a5.377 5.377 0 0 0-1.801 1.39 6.195 6.195 0 0 0-1.13 2.022 7.428 7.428 0 0 0-.389 2.41v11.466h-.706V10.38c0-.843-.065-1.64-.194-2.39-.13-.751-.371-1.408-.724-1.97A3.724 3.724 0 0 0 9.42 4.683c-.636-.329-1.46-.493-2.472-.493-.895 0-1.707.206-2.436.615a5.803 5.803 0 0 0-1.854 1.654 7.772 7.772 0 0 0-1.165 2.41 10.097 10.097 0 0 0-.407 2.884v10.235H.38V3.908h.707m25.441 12.575c.27 1.043.69 1.952 1.254 2.725a5.921 5.921 0 0 0 2.19 1.829c.894.446 1.989.669 3.283.669 1.908 0 3.49-.498 4.75-1.496 1.26-.995 2.042-2.49 2.348-4.483h.707c-.26 2.11-1.095 3.745-2.507 4.906-1.413 1.16-3.156 1.741-5.227 1.741-1.412.023-2.62-.2-3.619-.668a6.36 6.36 0 0 1-2.454-1.987c-.636-.856-1.107-1.865-1.413-3.025-.306-1.161-.459-2.41-.459-3.747 0-1.5.223-2.836.67-4.01.448-1.171 1.036-2.163 1.767-2.971a7.376 7.376 0 0 1 2.542-1.847 7.33 7.33 0 0 1 2.966-.633c1.413 0 2.63.27 3.655.808a7.194 7.194 0 0 1 2.507 2.147c.648.89 1.118 1.91 1.413 3.06.294 1.149.417 2.345.37 3.587H26.088c.022 1.22.17 2.352.44 3.395zm13.578-7.247a7.84 7.84 0 0 0-1.36-2.62 6.426 6.426 0 0 0-2.242-1.776c-.895-.434-1.93-.65-3.107-.65-.989 0-1.913.188-2.772.562a6.583 6.583 0 0 0-2.26 1.636c-.648.716-1.171 1.577-1.572 2.585-.4 1.009-.635 2.146-.705 3.412h14.477a10.68 10.68 0 0 0-.459-3.149zm3.372 7.247c.27 1.043.689 1.952 1.254 2.725a5.923 5.923 0 0 0 2.189 1.829c.894.446 1.99.669 3.284.669 1.907 0 3.49-.498 4.75-1.496 1.258-.995 2.042-2.49 2.348-4.483h.706c-.26 2.11-1.095 3.745-2.507 4.906-1.413 1.16-3.155 1.741-5.226 1.741-1.413.023-2.62-.2-3.62-.668a6.36 6.36 0 0 1-2.454-1.987c-.636-.856-1.107-1.865-1.412-3.025-.307-1.161-.46-2.41-.46-3.747 0-1.5.224-2.836.672-4.01.446-1.171 1.035-2.163 1.765-2.971a7.374 7.374 0 0 1 2.542-1.847 7.329 7.329 0 0 1 2.967-.633c1.412 0 2.63.27 3.654.808a7.192 7.192 0 0 1 2.507 2.147c.648.89 1.118 1.91 1.413 3.06.294 1.149.418 2.345.371 3.587H43.037a14.6 14.6 0 0 0 .44 3.395zm13.578-7.247a7.847 7.847 0 0 0-1.36-2.62 6.426 6.426 0 0 0-2.242-1.776c-.895-.434-1.93-.65-3.108-.65-.989 0-1.913.188-2.772.562a6.575 6.575 0 0 0-2.26 1.636c-.648.716-1.171 1.577-1.571 2.585-.4 1.009-.636 2.146-.706 3.412h14.478a10.68 10.68 0 0 0-.46-3.149zm4.52 9.234c0 .68.075 1.208.229 1.583.153.375.347.657.582.844.236.188.495.299.778.334.282.035.565.053.847.053.353 0 .67-.005.953-.018.283-.011.482-.04.6-.087v.702a97.59 97.59 0 0 0-.617.071c-.2.024-.57.035-1.112.035-.825 0-1.525-.24-2.101-.72-.578-.481-.866-1.367-.866-2.656v-14h-3.32v-.703h3.32V.594h.707v3.314h4.095v.703h-4.095V18.47M13.36 43.102v-4.467h-.07a6.218 6.218 0 0 1-2.172 3.482c-1.119.915-2.572 1.372-4.361 1.372-.942 0-1.807-.135-2.596-.405a5.487 5.487 0 0 1-2.048-1.23c-.577-.551-1.024-1.232-1.342-2.04-.317-.81-.476-1.741-.476-2.797V25.023H1V36.91c0 1.056.153 1.953.46 2.691.305.74.723 1.35 1.253 1.829a4.93 4.93 0 0 0 1.836 1.055c.694.224 1.43.334 2.207.334 1.083 0 2.036-.204 2.86-.615a6.067 6.067 0 0 0 2.066-1.653 7.224 7.224 0 0 0 1.253-2.41 9.713 9.713 0 0 0 .424-2.884V25.023h.706v18.08h-.706m3.179 3.671V25.023h.707v5.065h.07a7.989 7.989 0 0 1 1.024-2.199 7.727 7.727 0 0 1 1.59-1.74 6.858 6.858 0 0 1 2.1-1.144 7.87 7.87 0 0 1 2.56-.404c1.2 0 2.278.234 3.231.703a7.082 7.082 0 0 1 2.437 1.97c.67.844 1.183 1.84 1.536 2.99.353 1.15.53 2.404.53 3.763 0 1.267-.171 2.475-.513 3.623-.34 1.149-.835 2.158-1.482 3.025a7.053 7.053 0 0 1-2.42 2.058c-.965.503-2.07.756-3.319.756-1.93 0-3.52-.498-4.767-1.494-1.248-.997-2.084-2.316-2.507-3.958h-.07v8.737h-.707zm11.247-4.745a6.814 6.814 0 0 0 2.172-2.04 8.975 8.975 0 0 0 1.253-2.813c.27-1.044.406-2.093.406-3.149 0-1.172-.147-2.28-.441-3.323a8.929 8.929 0 0 0-1.307-2.78 6.26 6.26 0 0 0-2.189-1.916c-.883-.47-1.913-.704-3.09-.704-1.153 0-2.19.235-3.107.704a6.854 6.854 0 0 0-2.313 1.899c-.624.797-1.101 1.723-1.43 2.779a11.154 11.154 0 0 0-.494 3.341c0 2.838.67 5.013 2.012 6.525 1.342 1.512 3.119 2.268 5.332 2.268 1.248 0 2.313-.263 3.196-.79z" fill="#2C2F2B"/><path d="M37.754 41.168a2.34 2.34 0 0 1-2.342 2.333 2.34 2.34 0 0 1-2.342-2.333 2.327 2.327 0 0 1 2.342-2.332 2.328 2.328 0 0 1 2.342 2.332" fill="#FEE36C"/><path d="M50.636 24.54v12.53c0 3.915-2.052 6.524-6.18 6.524-2.075 0-3.682-1.034-4.794-2.732l2.793-2.93c.544.74 1.31 1.576 1.952 1.576 1.434 0 1.384-1.7 1.384-2.733V24.539h4.845m12.308 4.777c-.889-.739-2.025-1.231-3.212-1.231-.89 0-2.076.517-2.076 1.55 0 1.084 1.31 1.502 2.15 1.774l1.235.368c2.596.764 4.598 2.069 4.598 5.072 0 1.846-.445 3.742-1.928 4.997-1.458 1.231-3.41 1.748-5.29 1.748-2.347 0-4.646-.787-6.549-2.116l2.076-3.89c1.211 1.058 2.645 1.92 4.301 1.92 1.137 0 2.348-.566 2.348-1.872 0-1.353-1.903-1.821-2.941-2.117-3.04-.861-5.043-1.65-5.043-5.243 0-3.767 2.695-6.228 6.427-6.228 1.879 0 4.177.59 5.833 1.525l-1.929 3.743M4.55 51.556l-.336-.13.323-.16c.743-.37 1.17-.988 1.17-1.694 0-1.279-.976-1.982-2.748-1.982-.149 0-.34.002-.55.005-.254.003-.532.007-.793.007-.276.012-.559.012-.867.012H.664v7.917h.122c.237.012.478.012.733.012H2.91c1.94 0 3.052-.788 3.052-2.164 0-.823-.502-1.47-1.413-1.823zM1.81 48.34l.15-.009c.198-.012.47-.012.816-.012 1.533 0 1.699.996 1.699 1.424 0 .874-.575 1.375-1.577 1.375H1.81V48.34zm1.199 6.464H1.81v-2.95l.152-.007c.234-.013.53-.013.912-.013 1.654 0 1.833 1.064 1.833 1.522 0 .54-.221 1.448-1.698 1.448zm9.303-2.046v-2.967h-1.085v2.81c.034.702-.19 1.363-.616 1.807-.292.305-.66.48-1.01.48-.434 0-.952-.218-.952-1.254v-3.843H7.564v3.88c0 .707.157 1.222.466 1.529.272.272.651.404 1.157.404.54 0 1.518-.159 2.017-1.222l.229-.487.074.533c.06.43.22.742.334.94.042.064.1.154.163.23l.82-.322c-.08-.13-.151-.28-.21-.446-.2-.547-.302-1.245-.302-2.072m4.557-3.112c-1.717 0-2.784 1.21-2.784 3.161 0 1.864.834 2.81 2.478 2.81a4.83 4.83 0 0 0 1.56-.272 5.71 5.71 0 0 0 .531-.206l-.247-.59a5.097 5.097 0 0 1-.467.162c-.198.064-.717.214-1.181.214-1.304 0-1.453-1.13-1.502-1.501l-.023-.177.179-.003c1.933-.033 3.335-.886 3.335-2.03 0-1.011-.667-1.568-1.88-1.568zm-1.486 3.028l-.17.004.007-.169c.068-1.835.874-2.22 1.539-2.22.541 0 .904.371.904.925 0 .677-.714 1.423-2.28 1.46zm8.202-2.98c-.93 0-1.67.462-2.027 1.268l-.204.458-.1-.49a3.033 3.033 0 0 0-.335-.926 2.922 2.922 0 0 0-.151-.22l-.826.326c.072.125.14.272.203.44.209.573.315 1.271.315 2.074v2.907h1.084v-2.809c-.033-.694.178-1.32.594-1.756.295-.306.67-.483 1.032-.483.435 0 .953.222.953 1.278v3.77h1.085v-3.904c0-.707-.157-1.222-.466-1.53-.272-.271-.65-.403-1.157-.403m5.85-.048c-1.644 0-2.625 1.15-2.625 3.076 0 1.944.846 2.93 2.515 2.93 1.935 0 2.624-1.583 2.624-3.064 0-1.952-.846-2.942-2.514-2.942zm.012 5.29c-1.292 0-1.442-1.333-1.442-2.335 0-.962.136-2.24 1.308-2.24 1.292 0 1.442 1.34 1.442 2.349 0 .956-.136 2.227-1.308 2.227zm6.122-2.662c-.923-.35-1.116-.856-1.116-1.219 0-.415.339-.694.843-.694.344 0 .738.124 1.005.216.116.044.23.087.343.135l.298-.67a8.195 8.195 0 0 0-.429-.163 3.725 3.725 0 0 0-1.265-.233c-1.05 0-1.905.692-1.905 1.543 0 .873.449 1.367 1.656 1.822.822.325.994.802.994 1.146 0 .235-.096.78-.99.78-.363 0-.761-.155-1.102-.306a7.475 7.475 0 0 1-.423-.21l-.32.733c.16.076.337.149.53.215.358.13.895.283 1.437.283 1.299 0 1.978-.831 1.978-1.653 0-.95-.562-1.352-1.534-1.725m6.443-4.66l-3.052 7.917h1.12l.77-2.153h3.193l.758 2.153h1.217l-3.052-7.917h-.954zm1.764 5h-2.649l.076-.213c.42-1.172.747-2.214.986-2.975l.284-.893.145.508c.21.731.604 1.999 1.084 3.361l.074.212zm5.027 2.25c-.445 0-.502-.339-.502-.634v-4.439h-1.085v4.573c0 .773.427 1.215 1.171 1.215a2.06 2.06 0 0 0 .702-.105l-.102-.618a1.595 1.595 0 0 1-.184.008m-1.063-6.4c.628 0 .695-.493.695-.705 0-.426-.246-.68-.658-.68-.628 0-.695.501-.695.716 0 .309.172.669.658.669m5.593 1.242c-.781 0-1.322.406-1.609 1.208l-.193.543-.113-.565a2.751 2.751 0 0 0-.336-.888l-.152-.214-.813.32c.073.125.14.272.203.44.21.573.315 1.271.315 2.074v2.907h1.085v-3.198c.09-.924.67-1.582 1.38-1.582.18 0 .347.027.494.082l.298-1.04-.075-.02a2.09 2.09 0 0 0-.484-.067m4.164-.06c-1.716 0-2.783 1.21-2.783 3.161 0 1.864.834 2.81 2.478 2.81a4.84 4.84 0 0 0 1.56-.272 5.71 5.71 0 0 0 .531-.206l-.247-.59a5.069 5.069 0 0 1-.468.162c-.197.064-.717.214-1.18.214-1.304 0-1.453-1.13-1.502-1.501l-.023-.177.179-.003c1.932-.033 3.335-.886 3.335-2.03 0-1.011-.668-1.568-1.88-1.568zm-1.486 3.028l-.169.004.006-.169c.068-1.835.875-2.22 1.54-2.22.54 0 .904.371.904.925 0 .677-.713 1.423-2.28 1.46zm6.925-.4c-.923-.35-1.117-.856-1.117-1.219 0-.415.34-.694.844-.694.343 0 .738.124 1.005.216.116.044.23.087.342.135l.299-.67a8.195 8.195 0 0 0-.429-.163 3.727 3.727 0 0 0-1.266-.233c-1.05 0-1.904.692-1.904 1.543 0 .873.448 1.367 1.655 1.822.823.325.995.802.995 1.146 0 .235-.097.78-.99.78-.364 0-.761-.155-1.103-.306a7.458 7.458 0 0 1-.422-.21l-.32.733c.16.076.337.149.53.215.357.13.895.283 1.437.283 1.298 0 1.978-.831 1.978-1.653 0-.95-.563-1.352-1.534-1.725" fill="#2C2F2B"/><path d="M71.945 37.304c0-3.233-1.385-5.471-4.215-6.155v-5.16c2.83-.684 4.215-2.923 4.215-6.155 0-3.73-.843-8.083-.843-12.56 0-5.532 4.938-8.641 13.79-6.464l-1.385 5.284c-4.577-1.679-5.48.746-5.48 2.176 0 3.73.783 7.46.783 10.694 0 3.667-.662 6.962-4.998 9.636 4.336 2.674 4.998 5.968 4.998 9.575 0 3.232-.782 6.963-.782 10.693 0 1.43.902 3.855 5.48 2.176l1.384 5.284c-8.792 2.3-13.79-1.057-13.79-6.465 0-4.477.843-8.829.843-12.559m16.562 19.024l1.384-5.284c4.577 1.679 5.48-.746 5.48-2.176 0-3.73-.783-7.461-.783-10.693 0-3.544.663-6.964 4.938-9.575-4.275-2.61-4.938-6.031-4.938-9.636 0-3.234.784-6.964.784-10.694 0-1.43-.904-3.855-5.48-2.176L88.506.81c8.79-2.115 13.789.932 13.789 6.465 0 4.476-.843 8.829-.843 12.559 0 3.232 1.385 5.47 4.216 6.155v5.16c-2.831.684-4.216 2.922-4.216 6.155 0 3.73.843 8.082.843 12.559 0 5.408-4.998 8.765-13.79 6.465" fill="#FEE36C"/></g></svg>