<svg id="Layer_1" data-name="Layer 1" xmlns="http://www.w3.org/2000/svg" viewBox="0 0 388 80"><title>acamica2</title><path d="M399,260.8a.2.2,0,0,0-.2-.2H398c-.2,0-.2,0-.2.2l-16.5,38v.2l.2.2H389c.2,0,.2,0,.2-.2l1.7-4h14.8l1.8,4a.2.2,0,0,0,.2.2h8.2a.2.2,0,0,0,.2-.2v-.3Zm-5,27,2.5-6c.7-1.8,1.5-4.2,2-5.5.5,1.5,1.2,3.7,2,5.5l2.5,6Z" transform="translate(-286 -240)"/><path d="M453.8,286.5h0c-.2,0-.5,0-.5.3-2.5,3.8-5.2,5.2-9.2,5.2-6.5,0-11-5-11-12s4.5-12,11-12a10,10,0,0,1,8.8,4.8l.1.2h.2l6-4.2c.2,0,.2-.2,0-.5-3.2-5.3-8.2-8-15.2-8-11.2,0-19.8,8.5-19.8,19.5A19.41,19.41,0,0,0,444,299.6c7,0,12.5-3,16-8.5v-.5Z" transform="translate(-286 -240)"/><path d="M486.8,260.8a.2.2,0,0,0-.2-.2h-.8c-.2,0-.2,0-.2.2l-16.5,38v.2l.2.2h7.5c.2,0,.2,0,.2-.2l1.8-4h14.8l1.8,4a.2.2,0,0,0,.2.2h8c.2,0,.2,0,.2-.2v-.3Zm3.7,27h-8.8l2.5-6c.8-1.8,1.5-4.2,2-5.5.5,1.5,1.2,3.7,2,5.5Z" transform="translate(-286 -240)"/><path d="M552.8,260.5H552a.2.2,0,0,0-.2.2l-13,17.8c-.8,1.2-1.7,2.8-2.2,3.5a21.14,21.14,0,0,0-2.5-3.5l-13-18-.2-.3H520c-.2,0-.2.3-.2.3l-3,38v.2h7.4a.2.2,0,0,0,.2-.2l1-13.3c0-1.5.2-4,.2-5.5.8,1.2,2,3.2,3,4.8l6.8,9,.2.2h.8a.2.2,0,0,0,.2-.2l6.7-9a44,44,0,0,0,3-4.5c0,1.5.2,3.8.2,5.2l1,13.2a.2.2,0,0,0,.2.2h8v-.2l-2.9-37.9Z" transform="translate(-286 -240)"/><path d="M579.8,260.8H572c-.2,0-.2.3-.2.3v37.5c0,.3.2.3.2.3h7.8c.2,0,.2-.3.2-.3V261A.2.2,0,0,0,579.8,260.8Z" transform="translate(-286 -240)"/><path d="M624,286.5h-.2a.29.29,0,0,0-.3.3c-2.5,3.8-5.2,5.2-9.2,5.2-6.5,0-11-5-11-12s4.5-12,11-12a10,10,0,0,1,8.8,4.8l.2.2h.3l6-4.2c.3,0,.3-.2,0-.5-3.5-5.2-8.5-7.8-15.2-7.8-11.2,0-19.8,8.5-19.8,19.5a19.41,19.41,0,0,0,19.8,19.8c7,0,12.5-3,16-8.5v-.5Z" transform="translate(-286 -240)"/><path d="M674,298.5l-17.2-38a.29.29,0,0,0-.3-.3h-.8c-.2,0-.2,0-.2.3l-16.5,38v.2l.3.3h7.5c.2,0,.2,0,.2-.3l1.8-4h14.7l1.8,4a.29.29,0,0,0,.3.3h8c.3,0,.3,0,.3-.3C674,298.8,674,298.8,674,298.5Zm-13.5-10.7h-8.8l2.5-6c.8-1.8,1.5-4.2,2-5.5.5,1.5,1.2,3.7,2,5.5Z" transform="translate(-286 -240)"/><path d="M326,247.8A32.2,32.2,0,1,1,293.8,280,32.24,32.24,0,0,1,326,247.8m0-7.8a40,40,0,1,0,40,40,40.12,40.12,0,0,0-40-40Z" transform="translate(-286 -240)"/><circle cx="54" cy="40" r="6"/><circle cx="26" cy="40" r="6"/><path d="M326,269h0c-.2.2-.2.5-.5.8a17.92,17.92,0,0,0-3,7.7V279h0v.5h0l7.5-2,.5-.2a10.31,10.31,0,0,1,9.8-7.8V262A19.21,19.21,0,0,0,326,269Z" transform="translate(-286 -240)"/><path d="M331.8,286a29.23,29.23,0,0,1-3.8,7,17,17,0,0,0,12,4.7v-7.5A10.87,10.87,0,0,1,331.8,286Z" transform="translate(-286 -240)"/><path d="M330,281v-.5h0l-7.5,2H322a10.22,10.22,0,0,1-9.8,7.5v7.5a17.23,17.23,0,0,0,13.8-6.8h0a17.16,17.16,0,0,0,4-9.7Z" transform="translate(-286 -240)"/><path d="M320.5,274.2a21.35,21.35,0,0,1,3.8-7.3,17,17,0,0,0-12-4.7v7.5A12.51,12.51,0,0,1,320.5,274.2Z" transform="translate(-286 -240)"/><path d="M326,281.5" transform="translate(-286 -240)"/><path d="M325.5,278.8" transform="translate(-286 -240)"/></svg>