<svg id="Layer_1" data-name="Layer 1" xmlns="http://www.w3.org/2000/svg" viewBox="0 0 544.73 185.42"><defs><style>.cls-1{fill:#313230;}.cls-2{fill:#fff;}.cls-3{fill:none;stroke:#313230;stroke-miterlimit:10;stroke-width:2px;}</style></defs><title>banode3123</title><path class="cls-1" d="M450.8,665.75a5.37,5.37,0,0,1,2.32.51,5.78,5.78,0,0,1,1.86,1.37,6.45,6.45,0,0,1,1.22,2,6.8,6.8,0,0,1,.44,2.47,6.39,6.39,0,0,1-.85,3.39,5.5,5.5,0,0,1-2,2,7.67,7.67,0,0,1,2.48.71,6.65,6.65,0,0,1,2,1.49,6.91,6.91,0,0,1,1.34,2.18,7.5,7.5,0,0,1,.5,2.77,7.62,7.62,0,0,1-.53,2.84,7.55,7.55,0,0,1-1.47,2.35,6.88,6.88,0,0,1-2.21,1.6,6.47,6.47,0,0,1-2.72.58h-4.28V665.75Zm-1,11.71h1a4.58,4.58,0,0,0,1.93-.41,4.8,4.8,0,0,0,1.56-1.13,5.54,5.54,0,0,0,1-1.67,5.41,5.41,0,0,0,.39-2.05,5.89,5.89,0,0,0-.37-2.11,5.5,5.5,0,0,0-1-1.73,5.07,5.07,0,0,0-1.56-1.19,4.38,4.38,0,0,0-1.95-.43h-1Zm0,13.63h3.36a5.49,5.49,0,0,0,2.34-.51,6.13,6.13,0,0,0,1.91-1.37,6.74,6.74,0,0,0,1.31-7,6.19,6.19,0,0,0-1.27-2,5.78,5.78,0,0,0-1.91-1.32,6,6,0,0,0-2.37-.47h-3.36Z" transform="translate(-257.13 -524.87)"/><path class="cls-1" d="M492.84,684.53a8,8,0,0,1-.57,3,7.52,7.52,0,0,1-3.84,4.08,6.48,6.48,0,0,1-2.78.6,6.84,6.84,0,0,1-2.9-.62,7.84,7.84,0,0,1-2.35-1.66,7.47,7.47,0,0,1-1.57-2.43,7.82,7.82,0,0,1-.57-3V665.75h.92v18.78a6.91,6.91,0,0,0,1.86,4.72,6.28,6.28,0,0,0,2.05,1.45,6.16,6.16,0,0,0,2.53.53,5.75,5.75,0,0,0,2.42-.53,6.39,6.39,0,0,0,2-1.45,6.91,6.91,0,0,0,1.86-4.72V665.75h.92Z" transform="translate(-257.13 -524.87)"/><path class="cls-1" d="M512.8,677.46h7.68v1H512.8v12.65h8.81v1h-9.73V665.75h9.73v1H512.8Z" transform="translate(-257.13 -524.87)"/><path class="cls-1" d="M557.32,692.06l-16.45-24.54v24.54h-.92V665.75h.88l16.31,24.36V665.75h.92v26.31Z" transform="translate(-257.13 -524.87)"/><path class="cls-1" d="M577.19,673.75a13.41,13.41,0,0,1,2.67-4.24,12.73,12.73,0,0,1,4-2.86,11.76,11.76,0,0,1,9.73,0,12.73,12.73,0,0,1,4,2.86,13.84,13.84,0,0,1,0,18.82,12.49,12.49,0,0,1-4,2.84,12,12,0,0,1-9.73,0,12.49,12.49,0,0,1-4-2.84,13.41,13.41,0,0,1-2.67-4.24,14.26,14.26,0,0,1,0-10.35Zm.9,9.94a12.64,12.64,0,0,0,2.48,3.9,11.8,11.8,0,0,0,3.66,2.63,10.85,10.85,0,0,0,9,0,11.74,11.74,0,0,0,3.68-2.63,12.63,12.63,0,0,0,2.48-3.9,12.83,12.83,0,0,0-2.48-13.5,11.75,11.75,0,0,0-3.68-2.63,10.85,10.85,0,0,0-9,0,11.81,11.81,0,0,0-3.66,2.63,12.88,12.88,0,0,0-2.48,13.5Z" transform="translate(-257.13 -524.87)"/><path class="cls-1" d="M630.29,685.1a7.36,7.36,0,0,1-2,5,6.8,6.8,0,0,1-2.12,1.52,6.21,6.21,0,0,1-2.64.56,5.71,5.71,0,0,1-3.22-1,7.78,7.78,0,0,1-2.37-2.47l.81-.64a9.26,9.26,0,0,0,2,2.17,4.36,4.36,0,0,0,2.81.92,5.52,5.52,0,0,0,2.26-.47,5.62,5.62,0,0,0,1.84-1.3,6.39,6.39,0,0,0,1.7-4.37,5.93,5.93,0,0,0-.8-3.12,6,6,0,0,0-2-2.07l-4.71-2.82a5.88,5.88,0,0,1-2.11-2.2,6.49,6.49,0,0,1-.83-3.29,6.26,6.26,0,0,1,.44-2.37,6.09,6.09,0,0,1,1.2-1.9,5.39,5.39,0,0,1,1.8-1.26,5.61,5.61,0,0,1,2.25-.45,5.51,5.51,0,0,1,2.34.49,6.71,6.71,0,0,1,1.88,1.28l-.67.72A5.09,5.09,0,0,0,626.5,667a4.79,4.79,0,0,0-1.91-.4,4.7,4.7,0,0,0-1.89.38,4.64,4.64,0,0,0-1.5,1,4.87,4.87,0,0,0-1,1.58,5.34,5.34,0,0,0-.37,2,5.81,5.81,0,0,0,.6,2.63,4.46,4.46,0,0,0,1.63,1.84l4.78,2.9A6.76,6.76,0,0,1,630.29,685.1Z" transform="translate(-257.13 -524.87)"/><path class="cls-1" d="M672.61,681.26,669,692.06h-1q2.3-6.78,4.53-13.17T677,665.75h.81l8.78,26.31h-1L682,681.26Zm4.78-14.12L673,680.28h8.7Z" transform="translate(-257.13 -524.87)"/><path class="cls-1" d="M703.79,692.06V665.75h.92v26.31Z" transform="translate(-257.13 -524.87)"/><path class="cls-1" d="M732.17,674.59a6.1,6.1,0,0,1-1.27,2,6,6,0,0,1-1.91,1.34,5.75,5.75,0,0,1-2.37.49h-.78L734,692.06h-1.1l-8.24-13.78v13.78h-.92V665.75h3a5.18,5.18,0,0,1,2.26.51,6,6,0,0,1,1.86,1.37,6.47,6.47,0,0,1,1.26,2,6.59,6.59,0,0,1,.46,2.45A6.69,6.69,0,0,1,732.17,674.59Zm-3.5,2.43a5.07,5.07,0,0,0,1.59-1.17,5.62,5.62,0,0,0,1.06-1.69,5.4,5.4,0,0,0,.39-2.05,5.64,5.64,0,0,0-.39-2.11,5.72,5.72,0,0,0-1-1.71,4.68,4.68,0,0,0-1.56-1.15,4.57,4.57,0,0,0-1.93-.41h-2.12v10.73h2A4.68,4.68,0,0,0,728.67,677Z" transform="translate(-257.13 -524.87)"/><path class="cls-1" d="M752.13,677.46h7.68v1h-7.68v12.65h8.81v1h-9.73V665.75h9.73v1h-8.81Z" transform="translate(-257.13 -524.87)"/><path class="cls-1" d="M790.17,685.1a7.36,7.36,0,0,1-2,5,6.8,6.8,0,0,1-2.12,1.52,6.21,6.21,0,0,1-2.64.56,5.71,5.71,0,0,1-3.22-1,7.78,7.78,0,0,1-2.37-2.47l.81-.64a9.26,9.26,0,0,0,2,2.17,4.36,4.36,0,0,0,2.81.92,5.52,5.52,0,0,0,2.26-.47,5.62,5.62,0,0,0,1.84-1.3,6.39,6.39,0,0,0,1.7-4.37,5.93,5.93,0,0,0-.8-3.12,6,6,0,0,0-2-2.07l-4.71-2.82a5.88,5.88,0,0,1-2.11-2.2,6.49,6.49,0,0,1-.83-3.29,6.26,6.26,0,0,1,.44-2.37,6.09,6.09,0,0,1,1.2-1.9,5.39,5.39,0,0,1,1.8-1.26,5.61,5.61,0,0,1,2.25-.45,5.51,5.51,0,0,1,2.34.49,6.71,6.71,0,0,1,1.88,1.28l-.67.72a5.09,5.09,0,0,0-1.63-1.11,4.79,4.79,0,0,0-1.91-.4,4.7,4.7,0,0,0-1.89.38,4.64,4.64,0,0,0-1.5,1,4.87,4.87,0,0,0-1,1.58,5.34,5.34,0,0,0-.37,2,5.81,5.81,0,0,0,.6,2.63,4.46,4.46,0,0,0,1.63,1.84l4.78,2.9A6.76,6.76,0,0,1,790.17,685.1Z" transform="translate(-257.13 -524.87)"/><path class="cls-1" d="M695.58,634.64a37.08,37.08,0,0,1-8.29,7.08,41.87,41.87,0,0,1-10.08,4.56,39,39,0,0,1-26.59-1.5A40.06,40.06,0,0,1,638,636.13a40.72,40.72,0,0,1-8.53-12.83,41.09,41.09,0,0,1,0-31.32A40.72,40.72,0,0,1,638,579.17a40,40,0,0,1,12.64-8.65A39,39,0,0,1,677.2,569a40.18,40.18,0,0,1,10.08,4.64,38.9,38.9,0,0,1,8.29,7.16A42.4,42.4,0,0,1,701.7,590V524.87h4V647.3h-4V625.43A42.4,42.4,0,0,1,695.58,634.64Zm-62.41-12.9a36.82,36.82,0,0,0,7.67,11.49A36.21,36.21,0,0,0,652.16,641,34,34,0,0,0,666,643.84a35.44,35.44,0,0,0,24.81-10.07,36.53,36.53,0,0,0,7.67-11,36,36,0,0,0,3.18-13.53v-1.57a35.45,35.45,0,0,0-2.79-14.08,36.82,36.82,0,0,0-7.67-11.49,36.24,36.24,0,0,0-11.32-7.79,35.4,35.4,0,0,0-27.75,0,36.22,36.22,0,0,0-11.32,7.79,36.82,36.82,0,0,0-7.67,11.49,36.93,36.93,0,0,0,0,28.17Z" transform="translate(-257.13 -524.87)"/><path class="cls-1" d="M538.53,592a40.72,40.72,0,0,1,8.53-12.83,40,40,0,0,1,12.64-8.65,39.38,39.38,0,0,1,30.85,0,40.06,40.06,0,0,1,12.64,8.65A40.73,40.73,0,0,1,611.71,592a41.09,41.09,0,0,1,0,31.32,40.73,40.73,0,0,1-8.53,12.83,40.07,40.07,0,0,1-12.64,8.66,39.38,39.38,0,0,1-30.85,0,40.06,40.06,0,0,1-12.64-8.66,40.72,40.72,0,0,1-8.53-12.83,41.09,41.09,0,0,1,0-31.32Zm3.72,29.74a36.82,36.82,0,0,0,7.67,11.49A36.21,36.21,0,0,0,561.24,641,35.4,35.4,0,0,0,589,641a36.23,36.23,0,0,0,11.32-7.79A36.82,36.82,0,0,0,608,621.73a36.93,36.93,0,0,0,0-28.17,36.82,36.82,0,0,0-7.67-11.49A36.24,36.24,0,0,0,589,574.29a35.4,35.4,0,0,0-27.75,0,36.22,36.22,0,0,0-11.32,7.79,36.82,36.82,0,0,0-7.67,11.49,36.93,36.93,0,0,0,0,28.17Z" transform="translate(-257.13 -524.87)"/><path class="cls-1" d="M468.46,573a35.37,35.37,0,0,1,16.75-3.73,38.44,38.44,0,0,1,13,2.13,34.15,34.15,0,0,1,10.36,5.72,27.37,27.37,0,0,1,6.87,8.31,21.1,21.1,0,0,1,2.52,10.06v51.22h-5V595.44a17.57,17.57,0,0,0-2.23-8.61,23.9,23.9,0,0,0-6-7.09,28.89,28.89,0,0,0-8.91-4.8A33,33,0,0,0,485,573.18a34.21,34.21,0,0,0-11.13,1.75,28.56,28.56,0,0,0-8.81,4.73,21.76,21.76,0,0,0-5.71,6.86,17.37,17.37,0,0,0-2,8.16v52h-5V569.83h5v11.89A35.18,35.18,0,0,1,468.46,573Z" transform="translate(-257.13 -524.87)"/><path class="cls-1" d="M753.89,640.49a37,37,0,0,0,19-1.06,37.63,37.63,0,0,0,21.88-17.82,29.56,29.56,0,0,0,3.12-8.53l3.92.58a37.68,37.68,0,0,1-9.48,17.92A41,41,0,0,1,774,643a41.66,41.66,0,0,1-15.62,1.87A40.53,40.53,0,0,1,744,641.1a37,37,0,0,1-11.62-8.58,34.1,34.1,0,0,1-8.46-27.16,37,37,0,0,1,4.7-13.66,40.55,40.55,0,0,1,9.76-11.27,41.67,41.67,0,0,1,13.92-7.33,41.22,41.22,0,0,1,10.89-1.89,43.4,43.4,0,0,1,10.54.91,37.8,37.8,0,0,1,9.71,3.49,38.42,38.42,0,0,1,8.22,5.75l-53.55,51.26A33.78,33.78,0,0,0,753.89,640.49Zm-18.6-10.6,50.44-48.19a36.71,36.71,0,0,0-32.34-5.05,37.19,37.19,0,0,0-12.52,6.59,36.65,36.65,0,0,0-8.73,10.13,33.43,33.43,0,0,0-4.24,12.25,29.61,29.61,0,0,0,1.13,13A30.91,30.91,0,0,0,735.29,629.89Z" transform="translate(-257.13 -524.87)"/><polygon class="cls-1" points="0 48.7 78.94 3.13 157.87 48.7 157.87 139.85 78.94 185.42 0 139.85 0 48.7"/><polygon class="cls-2" points="21.3 60.16 78.94 26.84 136.57 60.16 136.57 150.73 78.94 183.67 21.3 150.73 21.3 60.16"/><polygon class="cls-1" points="79.13 57.09 112.85 76.74 112.85 116.73 78.74 135.94 45.02 116.73 45.02 76.35 79.13 57.09"/><line class="cls-3" x1="78.94" y1="183.67" x2="78.94" y2="135.73"/><line class="cls-3" x1="112.85" y1="76.74" x2="136.57" y2="60.16"/><line class="cls-3" x1="45.02" y1="76.35" x2="21.3" y2="60.16"/><path class="cls-2" d="M314.14,629.49l5-3c1,1.7,1.83,3.13,3.92,3.13s3.27-.78,3.27-3.83V605.07h6.09v20.81c0,6.31-3.7,9.19-9.1,9.19A9.46,9.46,0,0,1,314.14,629.49Z" transform="translate(-257.13 -524.87)"/><path class="cls-2" d="M335.69,628.84l5-2.87c1.31,2.13,3,3.7,6,3.7,2.52,0,4.14-1.26,4.14-3,0-2.09-1.65-2.83-4.44-4l-1.52-.65c-4.4-1.87-7.31-4.22-7.31-9.19,0-4.57,3.48-8.05,8.92-8.05,3.87,0,6.66,1.35,8.66,4.88l-4.75,3c-1-1.87-2.18-2.61-3.92-2.61a2.65,2.65,0,0,0-2.92,2.61c0,1.83,1.13,2.57,3.74,3.7l1.52.65c5.18,2.22,8.1,4.48,8.1,9.58,0,5.49-4.31,8.49-10.1,8.49S337.48,632.36,335.69,628.84Z" transform="translate(-257.13 -524.87)"/></svg>