<svg id="Layer_1" data-name="Layer 1" xmlns="http://www.w3.org/2000/svg" viewBox="0 0 2626.7 304.2"><title>fcclogo</title><path id="path5" d="M89.2,480.3h-23c-8,0-12.1-3.4-12.1-10.3s4-10.3,12.1-10.3h23V439.6c0-35,17.8-52.2,53.4-52.2,14.3,0,26.4,2.9,36.2,8,12.1,7.5,18.4,18.4,18.4,32.1,0,9.2-3.4,13.2-10.3,13.2-4.6,0-8.6-2.9-10.9-8-2.9-9.2-5.7-14.3-7.5-16.6-4-5.2-12.6-8-25.3-8-21.8,0-32.1,10.9-32.1,32.1v19.5H153c9.2,0,13.8,3.4,13.8,10.3s-4.6,10.3-13.8,10.3H111V611.7c0,8-3.4,12.1-10.3,12.1s-10.3-4-10.3-12.1V480.3H89.2Z" transform="translate(-54.1 -385.6)"/><path id="path7" d="M275.7,600.2V480.3h-31c-8.6,0-12.6-3.4-12.6-10.3s4-10.3,12.6-10.3H286c6.9,0,10.9,6.3,10.9,17.8,12.6-13.8,26.4-21.2,40.7-21.2,12.1,0,21.2,3.4,28.1,10.9S376,484.4,376,495.9c0,8-3.4,12.1-10.3,12.1-4,0-6.9-2.9-8.6-8-2.9-9.8-4.6-14.9-5.2-15.5-2.9-5.2-8.6-8-16.1-8-8,0-15.5,2.9-22.4,8.6-4,2.9-9.8,9.2-17.2,18.4v95.8h39c8.6,0,12.6,3.4,12.6,9.8,0,6.9-4,10.9-12.6,10.9H244c-8.6,0-12.6-3.4-12.6-10.3s4-10.3,12.6-10.3h31.6v0.8h0.1Z" transform="translate(-54.1 -385.6)"/><path id="path9" d="M432.3,544v23c0,24.7,17.2,36.7,52.2,36.7,12.6,0,23-1.1,31-4,4-1.1,11.5-5.2,21.2-12.1,6.3-5.7,10.9-8.6,12.6-8.6,5.7,0,8.6,2.9,8.6,9.2s-4,12.6-12.6,19.5c-13.8,10.9-34.4,16.6-62,16.6q-72.3,0-72.3-56.8V510.1c0-13.2,5.2-24.7,14.9-33.9,13.2-12.6,32.7-18.4,59.1-18.4,47.1,0,70.6,23.5,70.6,70,0,11.5-4.6,17.2-13.2,17.2H432.3v-1Zm0-20.7H535c0-31-17.2-46.5-52.2-46.5a70,70,0,0,0-34.4,8.6c-10.3,7.5-16.1,16.1-16.1,25.8v12.1Z" transform="translate(-54.1 -385.6)"/><path id="path11" d="M612.5,544v23c0,24.7,17.2,36.7,52.2,36.7,12.6,0,23-1.1,31-4,4-1.1,11.5-5.2,21.2-12.1,6.3-5.7,10.9-8.6,12.6-8.6,5.7,0,8.6,2.9,8.6,9.2s-4,12.6-12.6,19.5c-13.8,10.9-34.4,16.6-62,16.6q-72.3,0-72.3-56.8V510.1c0-13.2,5.2-24.7,14.9-33.9,13.2-12.6,32.7-18.4,59.1-18.4,47.1,0,70.6,23.5,70.6,70,0,11.5-4.6,17.2-13.2,17.2H612.5v-1Zm0-20.7H715.2c0-31-17.2-46.5-52.2-46.5a70,70,0,0,0-34.4,8.6c-10.9,7.5-16.1,16.1-16.1,25.8v12.1Z" transform="translate(-54.1 -385.6)"/><path id="path13" d="M773.8,557.2V467.7c0-47.1,24.7-70,74.6-70,20.1,0,36.2,4.6,48.8,13.2,14.3,10.9,21.2,25.8,21.2,44.2,0,8.6-3.4,13.2-10.9,13.2-5.2,0-8.6-4-10.9-12.6a54,54,0,0,0-8-20.1c-6.3-11.5-20.1-16.6-41.9-16.6q-27.6,0-39.6,13.8c-7.5,8.6-11.5,21.8-11.5,40.7V548c0,19.5,4,33.3,12.1,41.9,8.6,9.2,21.8,14.3,40.2,14.3q42.15,0,48.2-29.3a116.07,116.07,0,0,0,2.3-11.5c1.7-4,4.6-6.3,8.6-6.3,6.9,0,10.9,4.6,10.9,13.2,0,17.8-7.5,31.6-22.4,42.5-12.1,8-27.5,12.1-47.1,12.1-23,0-40.7-5.2-53.9-16.1q-20.7-18-20.7-51.6h0Z" transform="translate(-54.1 -385.6)"/><path id="path15" d="M951.7,569.8V510.7c0-36.2,24.1-53.9,72.3-53.9s72.3,17.8,72.3,53.9v59.1c0,36.2-23.5,53.9-71.2,53.9-49.3,0-73.4-17.7-73.4-53.9h0Zm123.4,0V510.7c0-22.4-17.2-33.9-52.2-33.9-33.3,0-50.5,11.5-50.5,33.9v59.1c0,22.4,17.2,33.9,51.6,33.3,34.4,0,51.1-10.9,51.1-33.3h0Z" transform="translate(-54.1 -385.6)"/><path id="path17" d="M1254.1,604.2c-9.8,7.5-18.4,12.1-25.8,14.9-8,2.9-17.8,4.6-29.3,4.6-19.5,0-35-4-47.1-12.1-13.8-9.2-20.7-23-20.7-41.9V509.4c0-17.8,6.9-31.6,20.1-40.7,11.5-8,27-12.1,45.3-12.1,12.1,0,22.4,1.1,30.4,4s16.6,8,25.8,15.5v-74c0-9.8,3.4-14.9,9.8-14.9,6.9,0,10.9,5.2,10.9,14.9V612.7c0,7.5-3.4,10.9-9.8,10.9-4,0-6.9-2.3-8-6.9a42.69,42.69,0,0,1-1.6-12.5h0Zm-1.1-24.1V497.5c-10.3-7.5-18.4-12.6-24.7-14.9a75.16,75.16,0,0,0-28.1-5.2c-13.2,0-24.1,2.3-32.1,7.5-10.3,6.3-15.5,15.5-15.5,27v56.8c0,12.1,5.2,21.2,16.1,27.5,8.6,4.6,19.5,7.5,32.7,7.5,10.9,0,20.7-1.7,28.7-5.2A178.45,178.45,0,0,0,1253,580.1Z" transform="translate(-54.1 -385.6)"/><path id="path19" d="M1332.2,544v23c0,24.7,17.2,36.7,52.2,36.7,12.6,0,23-1.1,31-4,4-1.1,11.5-5.2,21.2-12.1,6.3-5.7,10.9-8.6,12.6-8.6,5.7,0,8.6,2.9,8.6,9.2s-4,12.6-12.6,19.5c-13.8,10.9-34.4,16.6-62,16.6q-72.3,0-72.3-56.8V510.1c0-13.2,5.2-24.7,14.9-33.9,13.2-12.6,32.7-18.4,59.1-18.4,47.1,0,70.6,23.5,70.6,70,0,11.5-4.6,17.2-13.2,17.2H1332.1Zm0-20.7h102.7c0-31-17.2-46.5-52.2-46.5a70,70,0,0,0-34.4,8.6c-10.9,7.5-16.1,16.1-16.1,25.8v12.1Z" transform="translate(-54.1 -385.6)"/><path id="path21" d="M1493.5,557.2V467.7c0-47.1,24.7-70,74.6-70,20.1,0,36.2,4.6,48.8,13.2,14.3,10.9,21.2,25.8,21.2,44.2,0,8.6-3.4,13.2-10.9,13.2-5.2,0-8.6-4-10.9-12.6a54,54,0,0,0-8-20.1c-6.3-11.5-20.1-16.6-41.9-16.6q-27.6,0-39.6,13.8c-7.5,8.6-11.5,21.8-11.5,40.7V548c0,19.5,4,33.3,12.1,41.9,8.6,9.2,21.8,14.3,40.2,14.3q42.15,0,48.2-29.3a116.11,116.11,0,0,0,2.3-11.5c1.7-4,4.6-6.3,8.6-6.3,6.9,0,10.9,4.6,10.9,13.2,0,17.8-7.5,31.6-22.4,42.5-12.1,8-27.5,12.1-47.1,12.1-23,0-40.7-5.2-53.9-16.1-13.3-12-20.7-29.2-20.7-51.6h0Z" transform="translate(-54.1 -385.6)"/><path id="path23" d="M1787.3,604.2c-10.3,7.5-18.4,12.6-24.1,14.9-7.5,2.9-16.6,4.6-28.1,4.6-17.2,0-31.6-3.4-42.5-10.9-12.6-8.6-19.5-21.2-19.5-37.9s6.9-29.8,20.1-39c11.5-8.6,26.4-12.6,43.6-12.6,14.3,0,30.4,3.4,48.8,9.8V507.8c0-12.1-5.7-20.7-17.2-25.8-8-3.4-17.8-5.2-29.3-5.2-27,0-41.3,7.5-44.2,22.4-1.1,6.9-2.3,10.3-2.3,10.9a9,9,0,0,1-8.6,5.2c-7.5,0-11.5-4-11.5-12.1,0-10.9,4-20.7,12.6-29.8,10.3-11.5,29.3-17.2,55.7-17.2,21.2,0,36.7,3.4,47.1,10.3,12.1,8.6,18.4,23,18.4,43V583c0,8.6,1.7,14.3,5.2,17.2,0.6,0.6,4,2.3,9.8,4.6,3.4,1.7,5.2,4.6,5.2,9.8,0,5.7-2.9,8.6-9.2,8.6-1.7,0-4.6-.6-9.2-2.3-8-2.9-13.2-4.6-14.3-5.2-3.1-1.7-5.4-5.7-6.5-11.5h0Zm-1.2-21.8V552c-16.1-5.2-31.6-8-45.3-8-31,0-46.5,9.8-46.5,29.8,0,10.3,4.6,18.4,13.8,23,7.5,4,16.6,6.3,28.1,6.3,9.8,0,18.9-1.7,27-5.7C1769.5,595.1,1777,589.9,1786.1,582.4Z" transform="translate(-54.1 -385.6)"/><path id="path25" d="M1867.6,474c5.2-6.3,9.8-10.9,13.2-12.6,4.6-2.9,10.3-4.6,17.8-4.6,11.5,0,21.2,5.7,29.8,17.8,5.7-6.9,10.9-11.5,15.5-13.8,5.2-2.9,12.1-4,20.1-4,24.7,0,37.3,12.1,37.3,36.2V609.5c0,9.8-3.4,14.3-10.9,14.3-6.9,0-10.3-4.6-10.3-14.3V499.8c0-14.9-6.3-23-18.4-23-9.2,0-18.4,5.7-26.4,16.6V609.3c0,9.8-3.4,14.3-10.3,14.3s-10.3-4.6-10.3-14.3V502.1c0-16.6-6.9-24.7-20.1-24.7-8.6,0-16.6,5.7-25.3,16.6V609.4c0,9.8-3.4,14.3-10.9,14.3-6.9,0-10.3-4.6-10.3-14.3V467.1c0-6.9,2.9-10.3,8.6-10.3,2.9,0,5.7,2.3,7.5,6.3a17.29,17.29,0,0,1,3.4,10.9h0Z" transform="translate(-54.1 -385.6)"/><path id="path27" d="M2054.1,474c16.1-11.5,35-17.2,55.7-17.2,43.6,0,65.4,18.4,65.4,54.5V571c0,17.2-6.3,30.4-18.4,40.2-10.9,8.6-25.8,13.2-44.8,13.2-22.4,0-41.3-5.7-58-17.8v67.7c0,10.3-3.4,15.5-10.3,15.5s-10.3-5.2-10.3-15.5v-202c0-10.3,2.9-15.5,8.6-15.5,2.9,0,5.7,2.3,8,6.3,1.3,3.4,3,7.4,4.1,10.9h0Zm0,109c14.9,13.2,33.3,20.1,54.5,20.1,13.2,0,23.5-2.3,31.6-7.5,9.8-5.7,14.3-14.3,14.3-25.3V510.6c0-12.6-5.2-21.2-15.5-27-8-4-18.9-6.3-32.1-6.3-12.1,0-21.8,1.7-29.3,5.2-6.9,2.9-14.3,9.2-23.5,18.4V583h0Z" transform="translate(-54.1 -385.6)"/><path id="path29" d="M2246.4,526.2c0-45.3,15.5-85.5,47.1-121.1,11.5-13.2,20.7-19.5,27-19.5a8.66,8.66,0,0,1,6.3,2.3c1.7,1.7,2.9,3.4,2.9,5.7,0,3.4-4,8.6-12.1,16.6-32.7,31.6-49.4,70.6-49.4,117.1,0,51.6,17.2,93.5,51.1,125.7,6.9,6.3,10.3,11.5,10.3,15.5a8.85,8.85,0,0,1-2.9,6.3,9.27,9.27,0,0,1-6.3,2.9c-8,0-18.9-9.2-33.3-27.5C2259.6,616.3,2246.4,575,2246.4,526.2Z" transform="translate(-54.1 -385.6)"/><path id="path31" d="M2680.8,537.7c0,45.3-15.5,85.5-47.1,121.1-11.5,13.2-20.7,19.5-27,19.5a8.66,8.66,0,0,1-6.3-2.3,9.27,9.27,0,0,1-2.9-6.3c0-3.4,4-8.6,12.1-16.1C2642.3,622,2659,583,2659,536.5c0-51.6-17.2-93.5-51.1-125.7-6.9-6.3-10.3-11.5-10.3-15.5a8.85,8.85,0,0,1,2.9-6.3,9.27,9.27,0,0,1,6.3-2.9c7.5,0,18.9,9.2,33.3,27.5C2667,448.1,2680.8,489.5,2680.8,537.7Z" transform="translate(-54.1 -385.6)"/><g id="g33"><line id="line35" x1="2314.5" y1="253.1" x2="2513.7" y2="253.1"/><path id="path37" d="M2567.2,650.7H2368.1a12.2,12.2,0,0,1-12.1-12.1,11.83,11.83,0,0,1,12.1-12.1h199.1a12.2,12.2,0,0,1,12.1,12.1A11.83,11.83,0,0,1,2567.2,650.7Z" transform="translate(-54.1 -385.6)"/></g><path id="path3081" d="M2529,477.9c-3.2-10.8-8.3-21-16.1-29-2.1-2.1-4.3-4.1-6.5-6.1-1.7-1.6-6-4.1-6.9-6.2,4.6,10.7,9.1,21.8,5.7,33.6-1.6,5.3-7.4,18.1-15.1,14.8-7.2-3.1-6.4-18.3-7-24.4-1.5-15.1-4.9-30.1-12.9-43.1a52.31,52.31,0,0,0-17.3-17.7c-9.5-5.6-19.3-9.4-30.1-5.3,2.4-.9,8.6,6.3,9.8,7.7a44.21,44.21,0,0,1,8.6,15.4c3.4,11.4.4,24.5-3.6,35.4-8.3,22.6-22.1,42.9-28.7,66.1a110.16,110.16,0,0,0-4.3,24.8c-1.4,26.5,12.4,50.8,34.2,65.6,4.9,3.4,13.7,7.6,20,5.4-18.3-9.8-24.4-17.8-27.2-29.3-6.6-26.7,18.4-43.7,29.2-64.8,2.9-5.6,5-11.8,4.2-18.2-0.3-2.4-3-14.1-6.6-13.5,10.9-1.7,18,5.5,21.7,14.9,3.9,10,6.3,20.2,4.5,30.8-0.6,3.5-3.2,14.6,1.9,15.3,7.1,1,13.1-8.4,11.7-17.4-0.7-4.2-1.5-10.6-1.5-10.6a52.4,52.4,0,0,1,12,28.6c2,18.1-5.8,42-20.3,56.8,6.1-6.2,13.9-10.5,19.8-17.2a85,85,0,0,0,14.2-23c8.1-18.6,12.8-39.6,11.4-59.9a125.26,125.26,0,0,0-4.8-29.5h0Z" transform="translate(-54.1 -385.6)"/></svg>