<svg id="Layer_1" data-name="Layer 1" xmlns="http://www.w3.org/2000/svg" viewBox="0 0 46.49 31.33"><defs><style>.cls-1{fill:#1c1c1c;}</style></defs><title>logo</title><g id="g33"><line id="line35" class="cls-1" x1="13.08" y1="27.09" x2="34.4" y2="27.09"/><path id="path37" class="cls-1" d="M308.65,433.22H287.34a1.31,1.31,0,0,1-1.3-1.3,1.27,1.27,0,0,1,1.3-1.3h21.31a1.31,1.31,0,0,1,1.3,1.3A1.27,1.27,0,0,1,308.65,433.22Z" transform="translate(-274.32 -404.84)"/></g><path id="path29" class="cls-1" d="M274.32,419.89a18.93,18.93,0,0,1,5-13c1.23-1.41,2.22-2.09,2.89-2.09a0.93,0.93,0,0,1,.67.25,0.85,0.85,0,0,1,.31.61,3.64,3.64,0,0,1-1.3,1.78A16.76,16.76,0,0,0,276.65,420a17.73,17.73,0,0,0,5.47,13.45,2.71,2.71,0,0,1,1.1,1.66,1,1,0,0,1-.31.67,1,1,0,0,1-.67.31c-0.86,0-2-1-3.56-2.94A20.34,20.34,0,0,1,274.32,419.89Z" transform="translate(-274.32 -404.84)"/><path id="path31" class="cls-1" d="M320.81,421.12a18.93,18.93,0,0,1-5,13c-1.23,1.41-2.22,2.09-2.89,2.09a0.93,0.93,0,0,1-.67-0.25,1,1,0,0,1-.31-0.67,3.37,3.37,0,0,1,1.3-1.72A16.76,16.76,0,0,0,318.48,421,17.73,17.73,0,0,0,313,407.54a2.71,2.71,0,0,1-1.1-1.66,1,1,0,0,1,.31-0.67,1,1,0,0,1,.67-0.31c0.8,0,2,1,3.56,2.94A21,21,0,0,1,320.81,421.12Z" transform="translate(-274.32 -404.84)"/><path id="path3081" class="cls-1" d="M304.56,414.72a7.4,7.4,0,0,0-1.72-3.1c-0.22-.22-0.46-0.44-0.7-0.65a3.4,3.4,0,0,1-.74-0.66,5.3,5.3,0,0,1,.61,3.6c-0.17.57-.79,1.94-1.62,1.58s-0.68-2-.75-2.61a10.71,10.71,0,0,0-1.38-4.61,5.6,5.6,0,0,0-1.85-1.89,3.6,3.6,0,0,0-3.22-.57,2.22,2.22,0,0,1,1,.82,4.73,4.73,0,0,1,.92,1.65,6.24,6.24,0,0,1-.39,3.79c-0.89,2.42-2.37,4.59-3.07,7.07a11.79,11.79,0,0,0-.46,2.65,8,8,0,0,0,3.66,7,2.77,2.77,0,0,0,2.14.58c-2-1-2.61-1.91-2.91-3.14-0.71-2.86,2-4.68,3.13-6.94a3.36,3.36,0,0,0,.45-1.95c0-.26-0.32-1.51-0.71-1.44a2.13,2.13,0,0,1,2.32,1.59,6.15,6.15,0,0,1,.48,3.3c-0.06.37-.34,1.56,0.2,1.64,0.76,0.11,1.4-.9,1.25-1.86-0.07-.45-0.16-1.13-0.16-1.13a5.61,5.61,0,0,1,1.28,3.06,8.12,8.12,0,0,1-2.17,6.08c0.65-.66,1.49-1.12,2.12-1.84a9.1,9.1,0,0,0,1.52-2.46,13.94,13.94,0,0,0,1.22-6.41,13.41,13.41,0,0,0-.51-3.16h0Z" transform="translate(-274.32 -404.84)"/></svg>