<?xml version="1.0" encoding="UTF-8" standalone="no"?>
<svg width="106px" height="58px" viewBox="0 0 106 58" version="1.1" xmlns="http://www.w3.org/2000/svg" xmlns:xlink="http://www.w3.org/1999/xlink">
    <!-- Generator: Sketch 39.1 (31720) - http://www.bohemiancoding.com/sketch -->
    <title>Logo</title>
    <desc>Created with Sketch.</desc>
    <defs></defs>
    <g id="Site" stroke="none" stroke-width="1" fill="none" fill-rule="evenodd">
        <g id="iPhone-5/5S/5C" transform="translate(-14.000000, -72.000000)">
            <g id="Logo" transform="translate(14.000000, 72.000000)">
                <path d="M1.0865,3.90833186 L1.0865,8.37494971 L1.15705625,8.37494971 C1.32135625,7.67148297 1.580725,7.02641849 1.9338375,6.44074613 C2.28695,5.85474382 2.72254375,5.33836228 3.2402875,4.89292133 C3.75803125,4.44748039 4.328775,4.10102632 4.95318125,3.8552089 C5.57659375,3.60939149 6.24174375,3.4856579 6.94796875,3.4856579 C8.36041875,3.43913406 9.54364375,3.79680665 10.4973125,4.55834569 C11.4503187,5.3208746 12.080025,6.37013549 12.3861,7.70645833 L12.4569875,7.70645833 C12.8094375,6.44074613 13.5037375,5.42085134 14.5398875,4.64710392 C15.5760375,3.87302654 16.8000062,3.4856579 18.2124562,3.4856579 C19.3188312,3.4856579 20.236725,3.65063603 20.9668,3.97795263 C21.6962125,4.30691902 22.2848437,4.75796922 22.7326937,5.33209311 C23.17955,5.90753682 23.4972187,6.59879518 23.6860312,7.40784792 C23.8741812,8.21657071 23.9682562,9.11372177 23.9682562,10.0986412 L23.9682562,21.9872951 L23.2620312,21.9872951 L23.2620312,10.0986412 C23.2620312,9.2077593 23.1851812,8.39870656 23.032475,7.67148297 C22.8791062,6.94524925 22.6091375,6.32361166 22.2205812,5.80723012 C21.8323562,5.2921684 21.31395,4.89292133 20.6670187,4.61113869 C20.0187625,4.33034591 19.2012375,4.18912464 18.2124562,4.18912464 C17.3412687,4.18912464 16.553225,4.35971202 15.8466687,4.69956697 C15.1404437,5.03975187 14.5398875,5.50301045 14.0459937,6.08901276 C13.5517687,6.67501508 13.174475,7.34944566 12.9157687,8.11098471 C12.6564,8.87318366 12.5272125,9.67629719 12.5272125,10.5206552 L12.5272125,21.9872951 L11.8213187,21.9872951 L11.8213187,10.379434 C11.8213187,9.53606578 11.7557312,8.73889146 11.626875,7.98824098 C11.497025,7.23759049 11.255875,6.58097754 10.9030937,6.01840212 C10.5499812,5.45582671 10.055425,5.01038576 9.41975625,4.68174933 C8.78441875,4.35344285 7.9599375,4.18912464 6.94796875,4.18912464 C6.0532625,4.18912464 5.24070625,4.39468738 4.511625,4.80449306 C3.78188125,5.2152886 3.1634375,5.7666455 2.65795,6.4575739 C2.15146875,7.15015209 1.7629125,7.9526057 1.4926125,8.8675744 C1.22198125,9.78188319 1.0865,10.7437057 1.0865,11.752052 L1.0865,21.9872951 L0.380275,21.9872951 L0.380275,3.90833186 L1.0865,3.90833186" id="Fill-6" fill="#2C2F2B"></path>
                <path d="M26.5284875,16.4826349 C26.7987875,17.5259565 27.2174875,18.434986 27.7822688,19.2084035 C28.34705,19.9824809 29.0764625,20.59257 29.9718313,21.0370211 C30.865875,21.4834519 31.9606563,21.7055124 33.2551813,21.7055124 C35.1625188,21.7055124 36.7455625,21.2079384 38.004975,20.2104806 C39.2640563,19.2146727 40.0468,17.7199708 40.3532063,15.727035 L41.0597625,15.727035 C40.8000625,17.8371053 39.96465,19.4723685 38.5525313,20.6328247 C37.13975,21.7939407 35.397375,22.3740038 33.3264,22.3740038 C31.9136188,22.3971008 30.706875,22.1743803 29.7071625,21.7055124 C28.706125,21.2366446 27.8882688,20.5744224 27.2529313,19.7185159 C26.6169313,18.8632692 26.1458938,17.8539331 25.84015,16.6938069 C25.534075,15.5326908 25.3810375,14.2838064 25.3810375,12.9471536 C25.3810375,11.4468425 25.6043,10.1105196 26.0518188,8.93752513 C26.4990063,7.7655205 27.0873063,6.77433191 27.8177125,5.96560912 C28.547125,5.15688634 29.3944625,4.54151792 30.359725,4.11917391 C31.3246563,3.6968299 32.3137688,3.4856579 33.3264,3.4856579 C34.7385188,3.4856579 35.9568563,3.75589207 36.9810813,4.29438068 C38.004975,4.83451908 38.8403875,5.54953428 39.4879813,6.44074613 C40.135575,7.33162803 40.60595,8.35152282 40.9007625,9.5004305 C41.1949125,10.6496681 41.3181375,11.8457596 41.2714313,13.0883748 L26.0875938,13.0883748 C26.11045,14.3078932 26.257525,15.4396431 26.5284875,16.4826349 L26.5284875,16.4826349 Z M40.1060938,9.2364655 C39.8000188,8.24065751 39.3468688,7.3672633 38.7466438,6.61595291 C38.1460875,5.86629229 37.3984563,5.27402081 36.5044125,4.84012833 C35.609375,4.40623585 34.5738875,4.18912464 33.3969563,4.18912464 C32.408175,4.18912464 31.4836563,4.37785962 30.624725,4.75170005 C29.7654625,5.12752023 29.0125313,5.67293792 28.3649375,6.38762318 C27.7170125,7.10362825 27.1936375,7.96514404 26.7934875,8.9731604 C26.392675,9.98150673 26.1578188,11.1188659 26.0875938,12.3845781 L40.5652063,12.3845781 C40.5652063,11.2831842 40.4118375,10.2339233 40.1060938,9.2364655 L40.1060938,9.2364655 Z" id="Fill-7" fill="#2C2F2B"></path>
                <path d="M43.4778875,16.4826349 C43.7485188,17.5259565 44.1665563,18.434986 44.7316688,19.2084035 C45.29645,19.9824809 46.0258625,20.59257 46.9209,21.0370211 C47.815275,21.4834519 48.9100563,21.7055124 50.2049125,21.7055124 C52.1119188,21.7055124 53.6949625,21.2079384 54.954375,20.2104806 C56.213125,19.2146727 56.9965313,17.7199708 57.3026063,15.727035 L58.0091625,15.727035 C57.7494625,17.8371053 56.91405,19.4723685 55.5019313,20.6328247 C54.08915,21.7939407 52.346775,22.3740038 50.2758,22.3740038 C48.8630188,22.3971008 47.656275,22.1743803 46.6562313,21.7055124 C45.6551938,21.2366446 44.8373375,20.5744224 44.202,19.7185159 C43.5663313,18.8632692 43.0952938,17.8539331 42.78955,16.6938069 C42.483475,15.5326908 42.3307688,14.2838064 42.3307688,12.9471536 C42.3307688,11.4468425 42.5537,10.1105196 43.00155,8.93752513 C43.4484063,7.7655205 44.0370375,6.77433191 44.7671125,5.96560912 C45.496525,5.15688634 46.3438625,4.54151792 47.3094563,4.11917391 C48.2743875,3.6968299 49.2631688,3.4856579 50.2758,3.4856579 C51.6879188,3.4856579 52.9062563,3.75589207 53.93015,4.29438068 C54.954375,4.83451908 55.7897875,5.54953428 56.4373813,6.44074613 C57.0846438,7.33162803 57.55535,8.35152282 57.8501625,9.5004305 C58.1443125,10.6496681 58.2675375,11.8457596 58.2211625,13.0883748 L43.0366625,13.0883748 C43.05985,14.3078932 43.2072563,15.4396431 43.4778875,16.4826349 L43.4778875,16.4826349 Z M57.055825,9.2364655 C56.7494188,8.24065751 56.2962688,7.3672633 55.6960438,6.61595291 C55.0954875,5.86629229 54.3478563,5.27402081 53.4538125,4.84012833 C52.558775,4.40623585 51.5232875,4.18912464 50.346025,4.18912464 C49.3572438,4.18912464 48.4330563,4.37785962 47.574125,4.75170005 C46.7148625,5.12752023 45.9616,5.67293792 45.3146688,6.38762318 C44.6664125,7.10362825 44.1430375,7.96514404 43.7428875,8.9731604 C43.342075,9.98150673 43.1072188,11.1188659 43.0366625,12.3845781 L57.5146063,12.3845781 C57.5146063,11.2831842 57.3612375,10.2339233 57.055825,9.2364655 L57.055825,9.2364655 Z" id="Fill-8" fill="#2C2F2B"></path>
                <path d="M61.5757313,18.4696314 C61.5757313,19.1503312 61.6512563,19.6782612 61.8049563,20.0530915 C61.9576625,20.4279218 62.1521063,20.7097045 62.3872938,20.8967897 C62.6228125,21.0845348 62.8815188,21.19573 63.1647375,21.2313653 C63.4466313,21.2663407 63.7295188,21.2841583 64.012075,21.2841583 C64.3648563,21.2841583 64.6828563,21.278549 64.9650813,21.2663407 C65.2479688,21.2547922 65.4473813,21.225756 65.5656375,21.1785723 L65.5656375,21.8813791 C65.3539688,21.904806 65.1476,21.9288928 64.947525,21.9523197 C64.74745,21.9757466 64.3771125,21.9872951 63.8355188,21.9872951 C63.0110375,21.9872951 62.310775,21.7474169 61.7347313,21.2663407 C61.1570313,20.7859244 60.869175,19.9003218 60.869175,18.6108527 L60.869175,4.61113869 L57.5497188,4.61113869 L57.5497188,3.90833186 L60.869175,3.90833186 L60.869175,0.593591306 L61.5757313,0.593591306 L61.5757313,3.90833186 L65.6713063,3.90833186 L65.6713063,4.61113869 L61.5757313,4.61113869 L61.5757313,18.4696314" id="Fill-9" fill="#2C2F2B"></path>
                <path d="M13.359975,43.1021858 L13.359975,38.635238 L13.28975,38.635238 C12.959825,40.0415116 12.2357125,41.2026277 11.1177438,42.1172664 C9.99944375,43.0315752 8.5455875,43.4885646 6.7568375,43.4885646 C5.81509375,43.4885646 4.94986875,43.3536125 4.16149375,43.0843682 C3.37245625,42.8151239 2.68975,42.4043283 2.113375,41.8533014 C1.53600625,41.3029344 1.08948125,40.6222346 0.77148125,39.8135118 C0.4538125,39.004789 0.2948125,38.0726626 0.2948125,37.0168026 L0.2948125,25.0228926 L1.00136875,25.0228926 L1.00136875,36.9112166 C1.00136875,37.9667466 1.15374375,38.8635678 1.46015,39.6023398 C1.7655625,40.3414418 2.18393125,40.9515309 2.7136,41.4309574 C3.2436,41.9120336 3.8550875,42.263767 4.54971875,42.4864875 C5.24401875,42.7095379 5.98005625,42.8204032 6.7568375,42.8204032 C7.83969375,42.8204032 8.7927,42.6158303 9.61685,42.2047048 C10.441,41.7948991 11.1293375,41.2438722 11.6831875,40.551624 C12.2357125,39.8610255 12.65375,39.057582 12.9363063,38.1426133 C13.2188625,37.2283045 13.359975,36.267142 13.359975,35.2581357 L13.359975,25.0228926 L14.0662,25.0228926 L14.0662,43.1021858 L13.359975,43.1021858" id="Fill-1" fill="#2C2F2B"></path>
                <path d="M16.5383188,46.7736091 L16.5383188,25.0228926 L17.2445438,25.0228926 L17.2445438,30.0883811 L17.3151,30.0883811 C17.5499563,29.2912068 17.8918063,28.5573841 18.3389938,27.8892227 C18.78585,27.2210612 19.31585,26.6403382 19.9283313,26.1483734 C20.5398188,25.6560787 21.2404125,25.2749792 22.02945,25.005075 C22.8174938,24.7358307 23.671125,24.6005486 24.58935,24.6005486 C25.7898,24.6005486 26.867025,24.8351475 27.8203625,25.3036854 C28.7737,25.7735431 29.5855938,26.4301561 30.2570375,27.2738542 C30.9278188,28.1182123 31.4399313,29.1146802 31.7927125,30.2635879 C32.145825,31.4131555 32.3227125,32.6676492 32.3227125,34.0270689 C32.3227125,35.293771 32.1517875,36.5017409 31.8102688,37.6503186 C31.4694125,38.7988963 30.974525,39.8082325 30.3275938,40.6750276 C29.6796688,41.5428126 28.8734063,42.2291216 27.908475,42.7326348 C26.9428813,43.236478 25.8371688,43.4885646 24.58935,43.4885646 C22.6584938,43.4885646 21.0694875,42.9909906 19.822,41.9945227 C18.5741813,40.9977248 17.7384375,39.6785597 17.3151,38.0366974 L17.2445438,38.0366974 L17.2445438,46.7736091 L16.5383188,46.7736091 L16.5383188,46.7736091 Z M27.7849188,42.029498 C28.6677,41.501568 29.3918125,40.8215282 29.9565938,39.9890485 C30.5217063,39.1568989 30.9394125,38.2194931 31.210375,37.1755115 C31.480675,36.1321899 31.6164875,35.082929 31.6164875,34.0270689 C31.6164875,32.8550643 31.4694125,31.7467413 31.1749313,30.7037495 C30.8801188,29.6604278 30.4448563,28.7339107 29.8684813,27.9248579 C29.2911125,27.1154752 28.5617,26.4766799 27.67925,26.0078121 C26.7961375,25.5389442 25.76595,25.3036854 24.58935,25.3036854 C23.4356063,25.3036854 22.3997875,25.5389442 21.482225,26.0078121 C20.5636688,26.4766799 19.7921875,27.109866 19.168775,27.9070403 C18.5450313,28.7042146 18.0680313,29.6304018 17.7384375,30.6856019 C17.409175,31.7404721 17.2445438,32.8550643 17.2445438,34.0270689 C17.2445438,36.8646928 17.915325,39.0397644 19.2572188,40.551624 C20.5991125,42.0641434 22.3759375,42.8204032 24.58935,42.8204032 C25.8371688,42.8204032 26.9018063,42.5574281 27.7849188,42.029498 L27.7849188,42.029498 Z" id="Fill-2" fill="#2C2F2B"></path>
                <path d="M37.7535563,41.1679823 C37.7535563,42.4439231 36.7127688,43.500773 35.4116188,43.500773 C34.1104688,43.500773 33.0700125,42.4439231 33.0700125,41.1679823 C33.0700125,39.872574 34.1104688,38.8355215 35.4116188,38.8355215 C36.7127688,38.8355215 37.7535563,39.872574 37.7535563,41.1679823" id="Fill-3" fill="#FEE36C"></path>
                <path d="M50.6355375,24.5391768 L50.6355375,37.0705855 C50.6355375,40.9848565 48.5841063,43.5941506 44.4567313,43.5941506 C42.3807875,43.5941506 40.7738938,42.5603977 39.6615563,40.8624428 L42.4546563,37.9321012 C42.9989,38.6712033 43.76475,39.5076424 44.4070438,39.5076424 C45.8406938,39.5076424 45.7913375,37.8086976 45.7913375,36.7749446 L45.7913375,24.5391768 L50.6355375,24.5391768" id="Fill-4" fill="#2C2F2B"></path>
                <path d="M62.9444563,29.3159535 C62.05505,28.5771814 60.9185313,28.0848867 59.7319938,28.0848867 C58.8422563,28.0848867 57.6557188,28.6019282 57.6557188,29.6353512 C57.6557188,30.7185976 58.9658125,31.137312 59.8061938,31.4085361 L61.041425,31.7770972 C63.6367688,32.540616 65.639175,33.845593 65.639175,36.8488549 C65.639175,38.6949601 65.1943063,40.5912187 63.7113,41.8463723 C62.2531375,43.0771092 60.3004188,43.5941506 58.4219,43.5941506 C56.0736688,43.5941506 53.7754563,42.806545 51.872425,41.4778112 L53.9483688,37.587297 C55.1594188,38.6461266 56.5930688,39.5076424 58.2489875,39.5076424 C59.3858375,39.5076424 60.5972188,38.9420973 60.5972188,37.6364604 C60.5972188,36.2826499 58.6938563,35.8147719 57.6557188,35.5194611 C54.6158375,34.6576153 52.6134313,33.8693499 52.6134313,30.2757963 C52.6134313,26.5093456 55.3078188,24.047542 59.0400125,24.047542 C60.9185313,24.047542 63.217075,24.6378337 64.8726625,25.5732597 L62.9444563,29.3159535" id="Fill-5" fill="#2C2F2B"></path>
                <g id="Tag" transform="translate(0.000000, 46.379476)" fill="#2C2F2B">
                    <path d="M4.55038125,5.17684869 L4.2141625,5.04717588 L4.5368,4.88681714 C5.280125,4.51660622 5.7061125,3.89859815 5.7061125,3.19216181 C5.7061125,1.91391127 4.7309125,1.21011457 2.9593875,1.21011457 C2.80999375,1.21011457 2.61853125,1.21275422 2.40918125,1.21539387 C2.15544375,1.21869343 1.87653125,1.22265291 1.6158375,1.22265291 C1.33990625,1.23420138 1.05701875,1.23453133 0.74895625,1.23453133 L0.6644875,1.23453133 L0.6644875,9.15150176 L0.785725,9.15150176 C1.02323125,9.16371014 1.26438125,9.16371014 1.51878125,9.16371014 L2.91069375,9.16371014 C4.8501625,9.16371014 5.9625,8.37511469 5.9625,6.99952705 C5.9625,6.17628619 5.4609875,5.52858206 4.55038125,5.17684869 L4.55038125,5.17684869 Z M1.81028125,1.95977519 L1.96066875,1.95086637 C2.158425,1.93832803 2.42971875,1.93832803 2.77620625,1.93832803 C4.3089,1.93832803 4.474525,2.93446597 4.474525,3.36208928 C4.474525,4.23647336 3.89980625,4.73767691 2.8984375,4.73767691 L1.81028125,4.73767691 L1.81028125,1.95977519 L1.81028125,1.95977519 Z M3.00874375,8.4232883 L1.81028125,8.4232883 L1.81028125,5.47380932 L1.96199375,5.46622033 C2.1961875,5.45401195 2.49199375,5.45401195 2.873925,5.45401195 C4.52785625,5.45401195 4.7070625,6.51746096 4.7070625,6.97511029 C4.7070625,7.51623855 4.4857875,8.4232883 3.00874375,8.4232883 L3.00874375,8.4232883 Z" id="Fill-10"></path>
                    <path d="M12.3119,6.37887934 L12.3119,3.41191267 L11.2273875,3.41191267 L11.2273875,6.22116024 C11.261175,6.92330716 11.0365875,7.5845395 10.6112625,8.02833066 C10.3194312,8.33387016 9.95174375,8.50874697 9.60194375,8.50874697 C9.16734375,8.50874697 8.64860625,8.29097584 8.64860625,7.2549132 L8.64860625,3.41191267 L7.56409375,3.41191267 L7.56409375,7.29120839 C7.56409375,7.99896456 7.720775,8.51336636 8.02983125,8.82055564 C8.30245,9.09243959 8.68106875,9.22442209 9.18721875,9.22442209 C9.7261625,9.22442209 10.704675,9.06571313 11.2042,8.00226412 L11.4327625,7.51557864 L11.5069625,8.04812804 C11.5665875,8.47806104 11.72625,8.79019966 11.8408625,8.98784346 C11.8826,9.05251488 11.9415625,9.14259294 12.0041687,9.21914279 L12.82335,8.89644557 C12.7435187,8.76677277 12.6726312,8.6156528 12.6146625,8.45067467 C12.4142562,7.90327724 12.3119,7.20541976 12.3119,6.37887934" id="Fill-11"></path>
                    <path d="M16.868575,3.26607201 C15.1517062,3.26607201 14.0854125,4.47734143 14.0854125,6.42771286 C14.0854125,8.2913058 14.9191687,9.23663048 16.5631625,9.23663048 C17.0729562,9.23663048 17.5979875,9.14490264 18.12335,8.96540643 C18.299575,8.90436453 18.48375,8.83837327 18.6543437,8.75984368 L18.4072312,8.16889203 C18.2482312,8.23290354 18.0945312,8.28635646 17.9398375,8.33189042 C17.74175,8.39524202 17.2226812,8.54504216 16.7586,8.54504216 C15.4551312,8.54504216 15.3060687,7.41560189 15.2570437,7.04407115 L15.2338562,6.86754455 L15.4127312,6.86457495 C17.345575,6.83190928 18.7480875,5.97831244 18.7480875,4.83402414 C18.7480875,3.82303817 18.0806187,3.26607201 16.868575,3.26607201 L16.868575,3.26607201 Z M15.3825875,6.29441053 L15.2129875,6.29837001 L15.2196125,6.12976236 C15.2875187,4.2942157 16.0941125,3.9088268 16.7586,3.9088268 C17.3001937,3.9088268 17.6632437,4.28101745 17.6632437,4.83402414 C17.6632437,5.51109438 16.9494,6.25712548 15.3825875,6.29441053 L15.3825875,6.29441053 Z" id="Fill-12"></path>
                    <path d="M23.585,3.31457558 C22.6545188,3.31457558 21.9158313,3.77618438 21.55775,4.58259747 L21.3537,5.0402468 L21.2546563,4.54960185 C21.1841,4.19654865 21.0708125,3.88605981 20.9194313,3.62407455 C20.8680875,3.54488505 20.8184,3.46899511 20.7677188,3.40498359 L19.9422438,3.73032046 C20.014125,3.85504393 20.0820313,4.00220442 20.1446375,4.17081206 C20.3536563,4.74394608 20.4596563,5.44180357 20.4596563,6.24491709 L20.4596563,9.15150176 L21.5445,9.15150176 L21.5445,6.34258415 C21.511375,5.64835618 21.7223813,5.02176925 22.1384313,4.58655695 C22.4325813,4.28002759 22.80855,4.10317103 23.1696125,4.10317103 C23.604875,4.10317103 24.1232813,4.32523159 24.1232813,5.38175153 L24.1232813,9.15150176 L25.208125,9.15150176 L25.208125,5.24778929 C25.208125,4.54069303 25.0514438,4.02596127 24.7420563,3.71844204 C24.4701,3.44655808 24.09115,3.31457558 23.585,3.31457558" id="Fill-13"></path>
                    <path d="M29.4345437,3.26607201 C27.7908812,3.26607201 26.81005,4.41596956 26.81005,6.34258415 C26.81005,8.28701637 27.6560625,9.27292566 29.3245687,9.27292566 C31.2600625,9.27292566 31.9493937,7.68979554 31.9493937,6.20862191 C31.9493937,4.25627074 31.1033812,3.26607201 29.4345437,3.26607201 L29.4345437,3.26607201 Z M29.4471312,8.55725054 C28.1545937,8.55725054 28.0052,7.22389731 28.0052,6.22116024 C28.0052,5.25966771 28.1406812,3.98174713 29.3126437,3.98174713 C30.6051812,3.98174713 30.754575,5.32202944 30.754575,6.33037577 C30.754575,7.286589 30.6187625,8.55725054 29.4471312,8.55725054 L29.4471312,8.55725054 Z" id="Fill-14"></path>
                    <path d="M35.5686312,5.89483351 C34.6464312,5.54409001 34.45265,5.03826706 34.45265,4.67597509 C34.45265,4.26089012 34.7915187,3.98174713 35.2960125,3.98174713 C35.6395187,3.98174713 36.0340375,4.10515077 36.301025,4.19753852 C36.4169625,4.24175266 36.5309125,4.28497693 36.6435375,4.33249063 L36.9416625,3.66234947 C36.79525,3.60097761 36.645525,3.54686478 36.5133562,3.50001099 C36.1178437,3.35087077 35.6580687,3.26607201 35.24765,3.26607201 C34.1975875,3.26607201 33.3432937,3.95832024 33.3432937,4.80993733 C33.3432937,5.68267163 33.7918062,6.17661615 34.99855,6.63129587 C35.8210437,6.95630278 35.9932937,7.43374949 35.9932937,7.77789386 C35.9932937,8.01249276 35.8965687,8.55725054 35.0028562,8.55725054 C34.6398062,8.55725054 34.241975,8.40283101 33.9007875,8.25138109 C33.7421187,8.1781308 33.6029937,8.10818008 33.4784437,8.040869 L33.158125,8.77436176 C33.3177875,8.85058166 33.4953375,8.92317203 33.688125,8.9898232 C34.0455437,9.119496 34.5834937,9.27292566 35.1254187,9.27292566 C36.4235875,9.27292566 37.10265,8.4414359 37.10265,7.61951486 C37.10265,6.6695708 36.5405187,6.26801403 35.5686312,5.89483351" id="Fill-15"></path>
                    <path d="M42.0124375,1.23453133 L38.9599688,9.15150176 L40.0809188,9.15150176 L40.84975,6.99853719 L44.0433313,6.99853719 L44.8005688,9.15150176 L46.0179125,9.15150176 L42.9661063,1.23453133 L42.0124375,1.23453133 L42.0124375,1.23453133 Z M43.7763438,6.23435849 L41.1270063,6.23435849 L41.2028625,6.02153671 C41.6225563,4.84986204 41.9504938,3.80786018 42.189325,3.04632114 L42.4725438,2.15378947 L42.6179625,2.66159215 C42.8276438,3.39277521 43.2224938,4.66013719 43.7021438,6.02252658 L43.7763438,6.23435849 L43.7763438,6.23435849 Z" id="Fill-16"></path>
                    <path d="M48.8027313,8.48433021 C48.3578625,8.48433021 48.3008875,8.14579509 48.3008875,7.8508142 L48.3008875,3.41191267 L47.216375,3.41191267 L47.216375,7.98477644 C47.216375,8.75720403 47.6426938,9.20000533 48.3873438,9.20000533 C48.6304813,9.20000533 48.8467875,9.17261896 48.9968438,9.12312552 C49.0312938,9.11322684 49.0621,9.1036581 49.0892625,9.09441933 L48.9872375,8.47641126 C48.9405313,8.48301039 48.8616938,8.48433021 48.8027313,8.48433021" id="Fill-17"></path>
                    <path d="M47.7400813,2.0841687 C48.3678,2.0841687 48.435375,1.591544 48.435375,1.37971209 C48.435375,0.95373856 48.188925,0.699342286 47.7765188,0.699342286 C47.1491313,0.699342286 47.0815563,1.2008758 47.0815563,1.41600728 C47.0815563,1.72451638 47.2538063,2.0841687 47.7400813,2.0841687" id="Fill-18"></path>
                    <path d="M53.3329062,3.326454 C52.5518187,3.326454 52.0105562,3.73296011 51.7243562,4.53475382 L51.5309062,5.07786181 L51.4176187,4.51231679 C51.3338125,4.09525208 51.2009812,3.82930734 51.0820625,3.62407455 L50.93035,3.41026289 L50.1174625,3.73032046 C50.189675,3.85504393 50.25725,4.00220442 50.3198562,4.17081206 C50.5292062,4.74394608 50.634875,5.44180357 50.634875,6.24491709 L50.634875,9.15150176 L51.72005,9.15150176 L51.72005,5.95323576 C51.8091562,5.03001816 52.3898375,4.37109551 53.1007,4.37109551 C53.2805687,4.37109551 53.4468562,4.39848188 53.5936,4.45325462 L53.891725,3.41356246 L53.8171937,3.39442499 C53.6943,3.3634091 53.5088,3.326454 53.3329062,3.326454" id="Fill-19"></path>
                    <path d="M57.4973812,3.26607201 C55.7805125,3.26607201 54.7138875,4.47734143 54.7138875,6.42771286 C54.7138875,8.2913058 55.547975,9.23663048 57.1919687,9.23663048 C57.7017625,9.23663048 58.2267937,9.14490264 58.7524875,8.96540643 C58.9287125,8.90436453 59.1128875,8.83837327 59.28315,8.75984368 L59.0360375,8.16889203 C58.8770375,8.23290354 58.7233375,8.28635646 58.5683125,8.33189042 C58.3705562,8.39524202 57.8514875,8.54504216 57.3877375,8.54504216 C56.0839375,8.54504216 55.934875,7.41560189 55.88585,7.04407115 L55.8626625,6.86754455 L56.0415375,6.86457495 C57.9743812,6.83190928 59.3768937,5.97831244 59.3768937,4.83402414 C59.3768937,3.82303817 58.709425,3.26607201 57.4973812,3.26607201 L57.4973812,3.26607201 Z M56.0113937,6.29441053 L55.842125,6.29837001 L55.8484187,6.12976236 C55.916325,4.2942157 56.7229187,3.9088268 57.3877375,3.9088268 C57.9286687,3.9088268 58.2923812,4.28101745 58.2923812,4.83402414 C58.2923812,5.51109438 57.5785375,6.25712548 56.0113937,6.29441053 L56.0113937,6.29441053 Z" id="Fill-20"></path>
                    <path d="M62.9355125,5.89483351 C62.0133125,5.54409001 61.8192,5.03826706 61.8192,4.67597509 C61.8192,4.26089012 62.1584,3.98174713 62.6628938,3.98174713 C63.0060688,3.98174713 63.4005875,4.10515077 63.6679063,4.19753852 C63.7838438,4.24175266 63.8974625,4.28497693 64.0097563,4.33249063 L64.3085438,3.66234947 C64.1621313,3.60097761 64.0124063,3.54686478 63.8802375,3.50001099 C63.4843938,3.35087077 63.02495,3.26607201 62.6138688,3.26607201 C61.5641375,3.26607201 60.710175,3.95832024 60.710175,4.80993733 C60.710175,5.68267163 61.1583563,6.17661615 62.3651,6.63129587 C63.187925,6.95630278 63.3598438,7.43374949 63.3598438,7.77789386 C63.3598438,8.01249276 63.2627875,8.55725054 62.3700688,8.55725054 C62.0063563,8.55725054 61.6088563,8.40283101 61.2673375,8.25138109 C61.109,8.1781308 60.9695438,8.10818008 60.845325,8.040869 L60.524675,8.77436176 C60.6843375,8.85058166 60.8618875,8.92317203 61.0543438,8.9898232 C61.4120938,9.119496 61.950375,9.27292566 62.4919688,9.27292566 C63.7901375,9.27292566 64.4695313,8.4414359 64.4695313,7.61951486 C64.4695313,6.6695708 63.9074,6.26801403 62.9355125,5.89483351" id="Fill-21"></path>
                </g>
                <path d="M71.9451813,37.3041945 C71.9451813,34.0709531 70.560225,31.8325299 67.7303563,31.1485306 L67.7303563,25.9893345 C70.560225,25.3046753 71.9451813,23.066252 71.9451813,19.8336706 C71.9451813,16.1035151 71.10215,11.7510621 71.10215,7.27487555 C71.10215,1.74183908 76.0400938,-1.36700877 84.8924188,0.809712654 L83.5071313,6.09429206 C78.9299188,4.41514467 78.0275938,6.83966325 78.0275938,8.27002362 C78.0275938,11.9995192 78.8100063,15.7300046 78.8100063,18.9635759 C78.8100063,22.6310397 78.1475063,25.9263129 73.8124375,28.5999484 C78.1475063,31.273584 78.8100063,34.5681972 78.8100063,38.1746191 C78.8100063,41.4068706 78.0275938,45.137686 78.0275938,48.8678415 C78.0275938,50.2982018 78.9299188,52.7227204 83.5071313,51.043903 L84.8924188,56.3281524 C76.10005,58.6282775 71.10215,55.2709726 71.10215,49.8629895 C71.10215,45.386143 71.9451813,41.03435 71.9451813,37.3041945" id="Fill-22" fill="#FEE36C"></path>
                <path d="M88.5066875,56.3281524 L89.8913125,51.043903 C94.4678625,52.7227204 95.3715125,50.2982018 95.3715125,48.8678415 C95.3715125,45.137686 94.5884375,41.4068706 94.5884375,38.1746191 C94.5884375,34.6308889 95.2506063,31.2112222 99.52605,28.5999484 C95.2506063,25.9893345 94.5884375,22.569008 94.5884375,18.9635759 C94.5884375,15.7300046 95.3715125,11.9995192 95.3715125,8.27002362 C95.3715125,6.83966325 94.4678625,4.41514467 89.8913125,6.09429206 L88.5066875,0.809712654 C97.2977313,-1.30464704 102.295963,1.74183908 102.295963,7.27487555 C102.295963,11.7510621 101.452931,16.1035151 101.452931,19.8336706 C101.452931,23.066252 102.837556,25.3046753 105.66875,25.9893345 L105.66875,31.1485306 C102.837556,31.8325299 101.452931,34.0709531 101.452931,37.3041945 C101.452931,41.03435 102.295963,45.386143 102.295963,49.8629895 C102.295963,55.2709726 97.2977313,58.6282775 88.5066875,56.3281524" id="Fill-23" fill="#FEE36C"></path>
            </g>
        </g>
    </g>
</svg>