<svg id="Layer_1" data-name="Layer 1" xmlns="http://www.w3.org/2000/svg" viewBox="0 0 1099.56 340.48"><defs><style>.cls-1,.cls-5{fill:#a9d8f4;}.cls-1,.cls-2,.cls-4,.cls-5,.cls-6,.cls-7{stroke:#5ab3e5;}.cls-1,.cls-2,.cls-5,.cls-7{stroke-linecap:round;}.cls-1,.cls-2,.cls-4,.cls-5,.cls-7{stroke-linejoin:round;}.cls-1{stroke-width:16.74px;}.cls-2,.cls-4,.cls-6{fill:none;}.cls-2,.cls-4,.cls-5,.cls-6{stroke-width:5.81px;}.cls-3{fill:#5ab3e5;}.cls-6{stroke-miterlimit:10;}.cls-7{fill:#feee0b;stroke-width:4.41px;}.cls-8{fill:#212121;}</style></defs><title>nodeschoolba</title><polygon class="cls-1" points="288.73 251.15 148.52 332.11 8.37 251.15 8.37 89.27 148.52 8.37 288.73 89.27 288.73 251.15"/><path class="cls-2" d="M187.53,284.88h-55.7a4.42,4.42,0,0,0-4.42,4.42v42.44h27.54" transform="translate(-81.77 -94.43)"/><path class="cls-2" d="M297.93,331.74h37.89V289.3a4.42,4.42,0,0,0-4.42-4.42H274" transform="translate(-81.77 -94.43)"/><line class="cls-2" x1="169.42" y1="237.31" x2="200.24" y2="237.31"/><line class="cls-2" x1="89.02" y1="237.31" x2="128.62" y2="237.31"/><circle class="cls-2" cx="81.13" cy="236.56" r="7.96"/><circle class="cls-2" cx="208.26" cy="236.56" r="7.96"/><rect class="cls-2" x="52.01" y="201.32" width="13.83" height="36"/><polyline class="cls-2" points="115.48 212.43 115.48 237.31 126.6 237.31"/><rect class="cls-2" x="223.55" y="201.32" width="13.83" height="36"/><rect class="cls-2" x="65.91" y="201.32" width="24.82" height="19.39"/><polyline class="cls-2" points="187.42 201.31 198.73 201.31 198.73 220.7 178.77 220.7"/><rect class="cls-2" x="198.73" y="201.32" width="24.82" height="19.39"/><polyline class="cls-2" points="115.48 213.88 115.48 220.7 90.66 220.7 90.66 201.31 110.56 201.31"/><polygon class="cls-2" points="247.86 214.64 237.44 220.7 237.44 201.31 247.86 201.31 247.86 214.64"/><path class="cls-3" d="M193.78,362.06a.92.92,0,0,1,.32-1.26l2.59-1.52a2.86,2.86,0,0,1,2.27-.44,1.8,1.8,0,0,1,1.2.95h0a1.89,1.89,0,0,1-.06,2.15,2,2,0,0,1,2.4,1h0c.76,1.33.06,2.65-1.58,3.6l-2.65,1.58a.92.92,0,0,1-1.26-.32Zm4.29.44c.69-.44,1-.88.69-1.45h0c-.25-.51-.82-.51-1.52-.13l-1.58.95.88,1.58Zm2.15,2.65c.69-.44,1-.88.69-1.45h0c-.25-.51-.82-.57-1.64-.13l-1.89,1.07.95,1.64Z" transform="translate(-81.77 -94.43)"/><path class="cls-3" d="M226.63,359v-4a.95.95,0,1,1,1.89,0V359c0,1.39.69,2.08,1.83,2.08s1.83-.69,1.83-2v-4a.95.95,0,1,1,1.89,0V359c0,2.59-1.45,3.85-3.73,3.85A3.44,3.44,0,0,1,226.63,359Z" transform="translate(-81.77 -94.43)"/><path class="cls-3" d="M258.08,364.71l3.28-5.75a.87.87,0,0,1,1.18-.37l.09.05,4,2.34a.91.91,0,0,1,.32,1.14.89.89,0,0,1-1.14.32l-3.28-1.89-.88,1.52,2.78,1.64a.83.83,0,0,1-.82,1.45l-2.78-1.64L260,365l3.35,1.89a.83.83,0,0,1-.82,1.45l-4.11-2.4a.87.87,0,0,1-.37-1.18Z" transform="translate(-81.77 -94.43)"/><path class="cls-3" d="M288.33,157.05,231,124h0a.23.23,0,0,0-.19-.06h-.51a.57.57,0,0,0-.32.06h-.13a.48.48,0,0,0-.25.13h-.06l-56.4,32.59a1.39,1.39,0,0,0,1.39,2.4l50.15-28.93-21.35,27.22a1.4,1.4,0,1,0,2.21,1.71h0l23.3-29.68v29.05a1.39,1.39,0,1,0,2.78,0h0V129.39l23.3,29.68a1.32,1.32,0,0,0,1.07.57,1.51,1.51,0,0,0,.88-.32,1.41,1.41,0,0,0,.25-2l-21.35-27.22,51.16,29.37a1.26,1.26,0,0,0,.69.19,1.35,1.35,0,0,0,1.2-.69,1.43,1.43,0,0,0-.5-2Z" transform="translate(-81.77 -94.43)"/><path class="cls-3" d="M287.89,370.77a1.37,1.37,0,0,0-1.87-.52l0,0-50.15,28.93L257.13,372a1.4,1.4,0,1,0-2.21-1.71h0L231.61,400V370.9a1.39,1.39,0,0,0-2.78,0h0V400l-23.3-29.68a1.4,1.4,0,0,0-2.21,1.71h0l21.28,27.22L173.7,369.7a1.39,1.39,0,0,0-1.54,2.31l.15.09,57.35,33.09h.06a.22.22,0,0,1,.13.06H230c.13,0,.19.06.32.06h0a.47.47,0,0,0,.32-.06h.06a.06.06,0,0,0,.06-.06h0c.06,0,.13-.06.19-.06H231l56.4-32.59a1.17,1.17,0,0,0,.44-1.77Z" transform="translate(-81.77 -94.43)"/><circle class="cls-3" cx="209.9" cy="273.69" r="1.77"/><circle class="cls-3" cx="86.43" cy="273.69" r="1.77"/><path class="cls-3" d="M178.69,181.81a1.12,1.12,0,0,0,.88-1.26c-.32-1.77-.69-3.47-1-5.24,1.83,1.58,3.73,3.22,5.49,4.8a1.5,1.5,0,0,0,1.26.44h.06a1.07,1.07,0,0,0,.89-1.22v0c-.44-2.59-.88-5.24-1.33-7.83a1.15,1.15,0,0,0-1.33-.88,1.17,1.17,0,0,0-.95,1.26c.32,1.71.63,3.41.88,5.05-1.77-1.58-3.54-3.09-5.37-4.67a1.41,1.41,0,0,0-1.33-.38c-.06,0-.13.06-.25.06a1.1,1.1,0,0,0-.9,1.27v.06c.57,2.59,1.07,5.18,1.64,7.77A1.14,1.14,0,0,0,178.69,181.81Z" transform="translate(-81.77 -94.43)"/><path class="cls-3" d="M193.66,179.28a5.22,5.22,0,0,0,4.67-5.81h0c-.32-2.84-2.91-4.8-6.13-4.36a5.16,5.16,0,0,0-4.67,5.94h0A5.29,5.29,0,0,0,193.66,179.28Zm-3.79-4.67a3,3,0,0,1,2.39-3.51l.2,0A3.11,3.11,0,0,1,196,173.7v.09h0a3,3,0,0,1-2.51,3.46h-.08A3.16,3.16,0,0,1,189.87,174.61Z" transform="translate(-81.77 -94.43)"/><path class="cls-3" d="M202.06,178.08c.95-.13,1.89-.19,2.78-.32a5.1,5.1,0,0,0,4.93-5.43h0c-.19-2.78-2.65-4.8-5.94-4.48-.95.13-2,.19-2.91.32a1.12,1.12,0,0,0-1,1.2c.32,2.59.57,5.18.88,7.77A1.14,1.14,0,0,0,202.06,178.08Zm.25-8.08,1.77-.19a2.87,2.87,0,0,1,3.35,2.72h0a2.92,2.92,0,0,1-2.54,3.26l-.24,0-1.71.19C202.69,174,202.5,172,202.31,170Z" transform="translate(-81.77 -94.43)"/><path class="cls-3" d="M213.24,177.07c1.89-.13,3.73-.25,5.62-.32a1,1,0,0,0,.95-.95s0,0,0-.07a1,1,0,0,0-1-.95c-1.52.06-3,.13-4.61.25-.06-.69-.06-1.39-.13-2.08l3.92-.19a.94.94,0,0,0,.95-.93s0-.05,0-.08a1,1,0,0,0-1.06-.95h0l-3.92.19c-.06-.69-.06-1.33-.13-2,1.52-.13,3.09-.19,4.61-.25a1,1,0,1,0-.06-2h0c-2,.06-3.85.19-5.75.32a1.13,1.13,0,0,0-1.07,1.18v0l.57,7.77a1,1,0,0,0,1,1Z" transform="translate(-81.77 -94.43)"/><path class="cls-3" d="M221.51,175.62a6.42,6.42,0,0,0,3.79,1.07c2.15-.06,3.66-1.14,3.66-3.16h0c0-1.77-1.2-2.46-3.28-3-1.77-.38-2.21-.63-2.27-1.26h0c0-.51.44-.88,1.33-.88a4.38,4.38,0,0,1,2.21.63.94.94,0,0,0,.57.13,1,1,0,0,0,.57-1.89,5.75,5.75,0,0,0-3.35-.82c-2.15.06-3.6,1.33-3.54,3.09h0c.06,2,1.45,2.46,3.47,3,1.71.38,2.08.69,2.08,1.26h0c0,.57-.51.95-1.45.95a4.51,4.51,0,0,1-2.59-.82.94.94,0,0,0-.63-.19,1.05,1.05,0,0,0-1,1.07A1.08,1.08,0,0,0,221.51,175.62Z" transform="translate(-81.77 -94.43)"/><path class="cls-3" d="M235.66,176.69a5.35,5.35,0,0,0,3.6-1.14,1,1,0,0,0-.63-1.83,1,1,0,0,0-.69.25,3.24,3.24,0,0,1-2.21.76,3,3,0,0,1-2.91-3.16h0a3,3,0,0,1,2.92-3.09h.12a3.51,3.51,0,0,1,2.08.76,1.15,1.15,0,0,0,.69.25,1.07,1.07,0,0,0,1.14-1v0a1.11,1.11,0,0,0-.44-.88,5.42,5.42,0,0,0-3.47-1.07,5.1,5.1,0,0,0-5.42,4.75q0,.18,0,.36h0A5.28,5.28,0,0,0,235.66,176.69Z" transform="translate(-81.77 -94.43)"/><path class="cls-3" d="M242.67,176.82a1.08,1.08,0,0,0,1.14-1s0,0,0-.05c.06-1,.13-2,.13-3,1.39.06,2.78.13,4.11.25-.06,1-.13,2-.19,3a1.12,1.12,0,0,0,1,1.2,1.08,1.08,0,0,0,1.19-1v-.06l.57-8a1.13,1.13,0,0,0-1.06-1.2h0a1,1,0,0,0-1.2,1c-.06.95-.13,2-.19,2.91-1.39-.06-2.78-.19-4.17-.25.06-1,.13-2,.13-3a1.08,1.08,0,0,0-1-1.14H243a1.17,1.17,0,0,0-1.2,1.07c-.13,2.65-.19,5.31-.32,8A1.19,1.19,0,0,0,242.67,176.82Z" transform="translate(-81.77 -94.43)"/><path class="cls-3" d="M257.32,178a5.22,5.22,0,0,0,5.92-4.42l0-.13h0c.38-2.84-1.64-5.37-4.86-5.75a5.14,5.14,0,0,0-5.94,4.67h0a5.19,5.19,0,0,0,4.72,5.61Zm-2.53-5.49a3,3,0,0,1,3.15-2.81l.26,0A3.09,3.09,0,0,1,261,173.1v.11h0a3,3,0,0,1-3.23,2.79h-.12a3.06,3.06,0,0,1-2.87-3.24Q254.78,172.64,254.79,172.52Z" transform="translate(-81.77 -94.43)"/><path class="cls-3" d="M269.45,179.53a5.32,5.32,0,0,0,6.19-4.23h0a5.12,5.12,0,0,0-4.61-5.94,5.22,5.22,0,0,0-6.19,4.36h0a5.17,5.17,0,0,0,4.47,5.79ZM267.17,174a3.06,3.06,0,0,1,3.41-2.67l.13,0a3,3,0,0,1,2.63,3.35q0,.12,0,.25h0a3.1,3.1,0,0,1-6.13-.95Z" transform="translate(-81.77 -94.43)"/><path class="cls-3" d="M277.85,180.73c1.71.32,3.41.63,5.12,1a1,1,0,1,0,.46-1.94h-.08c-1.33-.25-2.72-.57-4-.82.44-2.27.88-4.55,1.26-6.88a1.05,1.05,0,0,0-.82-1.25l-.13,0a1.1,1.1,0,0,0-1.32.83v.06c-.44,2.59-.95,5.18-1.39,7.77A1.17,1.17,0,0,0,277.85,180.73Z" transform="translate(-81.77 -94.43)"/><circle class="cls-3" cx="149.65" cy="176.68" r="0.38"/><path class="cls-2" d="M300.2,237a224.69,224.69,0,0,0-138.82,0c-4.29-13.33-8.65-26.59-12.95-39.92a266.86,266.86,0,0,1,164.71,0C308.79,210.42,304.5,223.68,300.2,237Z" transform="translate(-81.77 -94.43)"/><line class="cls-4" x1="148.96" y1="88.58" x2="148.96" y2="251.97"/><line class="cls-4" x1="137.08" y1="90.28" x2="146.24" y2="250.96"/><line class="cls-4" x1="125.21" y1="91.99" x2="143.53" y2="249.88"/><line class="cls-4" x1="113.27" y1="93.7" x2="140.81" y2="248.87"/><line class="cls-4" x1="101.4" y1="95.34" x2="138.03" y2="247.8"/><line class="cls-4" x1="89.46" y1="97.04" x2="135.32" y2="246.73"/><line class="cls-4" x1="77.59" y1="98.75" x2="132.6" y2="245.71"/><line class="cls-4" x1="65.65" y1="100.45" x2="129.82" y2="244.64"/><line class="cls-4" x1="148.96" y1="88.58" x2="148.96" y2="251.97"/><line class="cls-4" x1="160.89" y1="90.28" x2="151.74" y2="250.96"/><line class="cls-4" x1="172.77" y1="91.99" x2="154.45" y2="249.88"/><line class="cls-4" x1="184.7" y1="93.7" x2="157.17" y2="248.87"/><line class="cls-4" x1="196.58" y1="95.34" x2="159.95" y2="247.8"/><line class="cls-4" x1="208.52" y1="97.04" x2="162.66" y2="246.73"/><line class="cls-4" x1="220.39" y1="98.75" x2="165.38" y2="245.71"/><line class="cls-4" x1="232.33" y1="100.45" x2="168.09" y2="244.64"/><polygon class="cls-5" points="148.96 106.14 137.91 117.32 129.82 244.64 149.02 251.97 168.16 244.64 160.07 117.32 148.96 106.14"/><line class="cls-2" x1="148.96" y1="106.2" x2="148.96" y2="251.97"/><path class="cls-5" d="M166.82,238.4l-20.4,9.09c-1.52-.57-2.4-.95-4-1.52l-18.82-42.32c.57-1.52.95-2.4,1.52-4l20.4-9.09Z" transform="translate(-81.77 -94.43)"/><path class="cls-2" d="M135.24,244.14l5.37-2.4-15.09-33.92-5.37,2.4c-.44,1.2-.69,1.89-1.2,3.09l13.2,29.62C133.34,243.45,134,243.7,135.24,244.14Z" transform="translate(-81.77 -94.43)"/><path class="cls-6" d="M128.92,235.68a8.23,8.23,0,0,1-6.69-15" transform="translate(-81.77 -94.43)"/><circle class="cls-3" cx="52.52" cy="112.14" r="2.02"/><circle class="cls-3" cx="60.03" cy="108.79" r="2.02"/><circle class="cls-3" cx="55.8" cy="119.53" r="2.02"/><circle class="cls-3" cx="63.32" cy="116.18" r="2.02"/><circle class="cls-3" cx="59.09" cy="126.92" r="2.02"/><circle class="cls-3" cx="66.6" cy="123.57" r="2.02"/><circle class="cls-3" cx="62.37" cy="134.31" r="2.02"/><circle class="cls-3" cx="69.95" cy="130.96" r="2.02"/><circle class="cls-3" cx="65.65" cy="141.69" r="2.02"/><circle class="cls-3" cx="73.23" cy="138.35" r="2.02"/><path class="cls-5" d="M295,237.77l20.4,9.09c1.52-.57,2.4-.95,4-1.52L338.16,203c-.57-1.52-.95-2.4-1.52-4L316.25,190Z" transform="translate(-81.77 -94.43)"/><path class="cls-2" d="M326.6,243.45l-5.37-2.4,15.09-33.92,5.37,2.4c.44,1.2.69,1.89,1.2,3.09l-13.2,29.62C328.43,242.75,327.8,243,326.6,243.45Z" transform="translate(-81.77 -94.43)"/><path class="cls-6" d="M332.92,235a8.23,8.23,0,1,0,6.69-15" transform="translate(-81.77 -94.43)"/><circle class="cls-3" cx="245.78" cy="111.44" r="2.02"/><circle class="cls-3" cx="238.2" cy="108.1" r="2.02"/><circle class="cls-3" cx="242.49" cy="118.83" r="2.02"/><circle class="cls-3" cx="234.91" cy="115.48" r="2.02"/><circle class="cls-3" cx="239.21" cy="126.22" r="2.02"/><circle class="cls-3" cx="231.63" cy="122.87" r="2.02"/><circle class="cls-3" cx="235.86" cy="133.61" r="2.02"/><circle class="cls-3" cx="228.35" cy="130.26" r="2.02"/><circle class="cls-3" cx="232.58" cy="141" r="2.02"/><circle class="cls-3" cx="225.06" cy="137.65" r="2.02"/><polygon class="cls-7" points="157.36 183.31 149.02 188.18 140.62 183.31 140.62 173.65 149.02 168.85 157.36 173.65 157.36 183.31"/><line class="cls-2" x1="129.82" y1="244.64" x2="37.17" y2="244.64"/><line class="cls-2" x1="262.7" y1="244.64" x2="168.09" y2="244.64"/><path class="cls-5" d="M148.75,269.41a6.66,6.66,0,1,0,0-9.41h0l-9.28,9.41a6.66,6.66,0,1,1,0-9.41h0" transform="translate(-81.77 -94.43)"/><path class="cls-5" d="M313.78,269.41a6.66,6.66,0,1,1,0-9.41h0l9.28,9.41a6.66,6.66,0,1,0,0-9.41h0" transform="translate(-81.77 -94.43)"/><line class="cls-2" x1="258.79" y1="170.24" x2="262.7" y2="170.24"/><line class="cls-2" x1="35.53" y1="170.24" x2="39.7" y2="170.24"/><path class="cls-3" d="M420.45,174.91h18.78l21.15,40.3,8,17.91h.5q-.62-6.47-1.43-14.43a150.08,150.08,0,0,1-.81-15.18V174.91H484V256H465.23l-21.15-40.43-8-17.66h-.5q.62,6.72,1.43,14.43a143.51,143.51,0,0,1,.81,14.93V256H420.45Z" transform="translate(-81.77 -94.43)"/><path class="cls-3" d="M536.13,257.51a37.48,37.48,0,0,1-15-2.92,32.54,32.54,0,0,1-11.63-8.4A38.55,38.55,0,0,1,502,232.88a54.88,54.88,0,0,1-2.67-17.79A54.33,54.33,0,0,1,502,197.36a36.67,36.67,0,0,1,7.53-13.06,32.3,32.3,0,0,1,11.63-8.09,41.53,41.53,0,0,1,30,0,32,32,0,0,1,11.63,8.15,37.35,37.35,0,0,1,7.53,13.12,54,54,0,0,1,2.67,17.6,54.93,54.93,0,0,1-2.67,17.79,38.58,38.58,0,0,1-7.53,13.31,32.56,32.56,0,0,1-11.63,8.4A37.49,37.49,0,0,1,536.13,257.51Zm0-15.8a15.14,15.14,0,0,0,13.18-7.15q4.85-7.15,4.85-19.47t-4.85-19a16.13,16.13,0,0,0-26.37,0q-4.85,6.84-4.85,19t4.85,19.47A15.14,15.14,0,0,0,536.13,241.71Z" transform="translate(-81.77 -94.43)"/><path class="cls-3" d="M588.25,174.91h22.89a55.56,55.56,0,0,1,16.79,2.36,33.71,33.71,0,0,1,12.81,7.28,32,32,0,0,1,8.21,12.5,51.14,51.14,0,0,1,2.86,18,52.18,52.18,0,0,1-2.86,18.16A33.64,33.64,0,0,1,640.86,246a33.22,33.22,0,0,1-12.5,7.53A49.93,49.93,0,0,1,612.13,256H588.25ZM610,241.21a30.58,30.58,0,0,0,9.45-1.37,17.44,17.44,0,0,0,7.21-4.42,20.73,20.73,0,0,0,4.67-8A38.91,38.91,0,0,0,633,215.09,37.88,37.88,0,0,0,631.35,203a19.65,19.65,0,0,0-4.67-7.84,17,17,0,0,0-7.21-4.17,33.5,33.5,0,0,0-9.45-1.24h-3.48v51.5Z" transform="translate(-81.77 -94.43)"/><path class="cls-3" d="M667.23,174.91H718v15.42H685.52v16.3h27.62v15.3H685.52v18.66h33.71V256h-52Z" transform="translate(-81.77 -94.43)"/><path class="cls-3" d="M740.62,233.25a39.42,39.42,0,0,0,9.64,6.1,25.31,25.31,0,0,0,10.39,2.36q5.72,0,8.52-2.11a6.79,6.79,0,0,0,2.8-5.72,6.25,6.25,0,0,0-.81-3.23,7.75,7.75,0,0,0-2.36-2.43,22.36,22.36,0,0,0-3.73-2l-4.79-2.05-10.57-4.48a31.34,31.34,0,0,1-6-3.23,26.52,26.52,0,0,1-5.22-4.66,21,21,0,0,1-3.67-6.22,22.13,22.13,0,0,1-1.37-8,21.46,21.46,0,0,1,2.11-9.39,23.32,23.32,0,0,1,6-7.71,28.5,28.5,0,0,1,9.14-5.16,34.72,34.72,0,0,1,11.63-1.87,37.72,37.72,0,0,1,14,2.74,35.44,35.44,0,0,1,12.13,8l-9.33,11.57a35.4,35.4,0,0,0-8-4.79,22.52,22.52,0,0,0-8.83-1.68,13.06,13.06,0,0,0-7.53,1.93,6.2,6.2,0,0,0-2.8,5.41,5.31,5.31,0,0,0,.93,3.17,9.1,9.1,0,0,0,2.61,2.36,26.44,26.44,0,0,0,3.92,2l4.85,2.05,10.45,4.23a28.55,28.55,0,0,1,11.75,8.21q4.29,5.22,4.29,13.81a23,23,0,0,1-8,17.6,29.73,29.73,0,0,1-9.64,5.47,38.16,38.16,0,0,1-12.94,2.05,45.43,45.43,0,0,1-15.86-2.92,41.35,41.35,0,0,1-14.12-8.77Z" transform="translate(-81.77 -94.43)"/><path class="cls-3" d="M800.7,216a48.75,48.75,0,0,1,3.11-18,40.11,40.11,0,0,1,8.4-13.37,35.62,35.62,0,0,1,12.31-8.33,39,39,0,0,1,14.86-2.86,29.57,29.57,0,0,1,13.75,3.17A39.12,39.12,0,0,1,863.4,184l-10.08,11.32a28.49,28.49,0,0,0-6.28-4.48,16.11,16.11,0,0,0-7.4-1.62,17.67,17.67,0,0,0-7.9,1.8,19.05,19.05,0,0,0-6.41,5.16,24.83,24.83,0,0,0-4.29,8.21,35.75,35.75,0,0,0-1.55,10.95q0,12.57,5.35,19.47a17.17,17.17,0,0,0,14.3,6.9,18.24,18.24,0,0,0,8.71-2,25.28,25.28,0,0,0,6.72-5.22l10.08,11.07a32.78,32.78,0,0,1-25.75,11.94,41,41,0,0,1-14.8-2.67,34.54,34.54,0,0,1-12.19-7.9,36.68,36.68,0,0,1-8.21-13A49.94,49.94,0,0,1,800.7,216Z" transform="translate(-81.77 -94.43)"/><path class="cls-3" d="M877,174.91h18.29v31.22h28V174.91h18.41V256H923.23V222.18h-28V256H877Z" transform="translate(-81.77 -94.43)"/><path class="cls-3" d="M993.76,257.51a37.48,37.48,0,0,1-15-2.92,32.54,32.54,0,0,1-11.63-8.4,38.55,38.55,0,0,1-7.53-13.31,54.88,54.88,0,0,1-2.67-17.79,54.33,54.33,0,0,1,2.67-17.73,36.67,36.67,0,0,1,7.53-13.06,32.3,32.3,0,0,1,11.63-8.09,41.53,41.53,0,0,1,30,0,32,32,0,0,1,11.63,8.15,37.35,37.35,0,0,1,7.53,13.12,54,54,0,0,1,2.67,17.6,54.93,54.93,0,0,1-2.67,17.79,38.58,38.58,0,0,1-7.53,13.31,32.56,32.56,0,0,1-11.63,8.4A37.49,37.49,0,0,1,993.76,257.51Zm0-15.8a15.14,15.14,0,0,0,13.18-7.15q4.85-7.15,4.85-19.47t-4.85-19a16.13,16.13,0,0,0-26.37,0q-4.85,6.84-4.85,19t4.85,19.47A15.14,15.14,0,0,0,993.76,241.71Z" transform="translate(-81.77 -94.43)"/><path class="cls-3" d="M1078.84,257.51a37.48,37.48,0,0,1-15-2.92,32.54,32.54,0,0,1-11.63-8.4,38.55,38.55,0,0,1-7.53-13.31,54.88,54.88,0,0,1-2.67-17.79,54.33,54.33,0,0,1,2.67-17.73,36.67,36.67,0,0,1,7.53-13.06,32.3,32.3,0,0,1,11.63-8.09,41.53,41.53,0,0,1,30,0,32,32,0,0,1,11.63,8.15,37.35,37.35,0,0,1,7.53,13.12,54,54,0,0,1,2.67,17.6,54.93,54.93,0,0,1-2.67,17.79,38.58,38.58,0,0,1-7.53,13.31,32.56,32.56,0,0,1-11.63,8.4A37.49,37.49,0,0,1,1078.84,257.51Zm0-15.8a15.14,15.14,0,0,0,13.18-7.15q4.85-7.15,4.85-19.47t-4.85-19a16.13,16.13,0,0,0-26.37,0q-4.85,6.84-4.85,19t4.85,19.47A15.14,15.14,0,0,0,1078.84,241.71Z" transform="translate(-81.77 -94.43)"/><path class="cls-3" d="M1131,174.91h18.29v65.68h32.09V256H1131Z" transform="translate(-81.77 -94.43)"/><path class="cls-8" d="M421.47,282.53H440.2a41.54,41.54,0,0,1,8.79.86,20.56,20.56,0,0,1,6.82,2.69,12.87,12.87,0,0,1,4.42,4.75,14.65,14.65,0,0,1,1.58,7.06,14.36,14.36,0,0,1-2.69,8.5,13.94,13.94,0,0,1-8.26,5.23V312q6.92,1.06,10.76,4.8t3.84,10.28a17.83,17.83,0,0,1-1.73,8.07,15.75,15.75,0,0,1-4.9,5.76,22.38,22.38,0,0,1-7.59,3.46,38.39,38.39,0,0,1-9.7,1.15H421.47Zm17.29,26.9q8.16,0,11.67-2.79t3.51-8.07q0-5.19-3.7-7.44t-11.09-2.26h-9.7v20.56Zm1.63,29.78q8.16,0,12.68-3t4.51-9.46q0-5.86-4.42-8.6t-12.78-2.74h-11V339.2Z" transform="translate(-81.77 -94.43)"/><path class="cls-8" d="M493.13,282.53h8V319.7a33.54,33.54,0,0,0,1.15,9.51,16.78,16.78,0,0,0,3.12,6.15,11.25,11.25,0,0,0,4.66,3.31,16.26,16.26,0,0,0,5.76,1,16.55,16.55,0,0,0,5.86-1,11.64,11.64,0,0,0,4.71-3.31,16.34,16.34,0,0,0,3.17-6.15,33.54,33.54,0,0,0,1.15-9.51V282.53h7.68v37a40.78,40.78,0,0,1-1.73,12.78,22.4,22.4,0,0,1-4.75,8.41,17.24,17.24,0,0,1-7.16,4.61,27.81,27.81,0,0,1-8.93,1.39,28.24,28.24,0,0,1-9-1.39,17.19,17.19,0,0,1-7.2-4.61,22.4,22.4,0,0,1-4.75-8.41,40.81,40.81,0,0,1-1.73-12.78Z" transform="translate(-81.77 -94.43)"/><path class="cls-8" d="M570.83,282.53h36.31v6.72H578.81V309h23.92v6.82H578.81v22.86h29.3v6.82H570.83Z" transform="translate(-81.77 -94.43)"/><path class="cls-8" d="M636.92,282.53h8.26l22.76,39.58,6.82,13.06h.38q-.29-4.8-.62-9.94t-.34-10.13V282.53h7.59v63h-8.26l-22.86-39.67-6.82-13h-.38q.38,4.8.72,9.75t.34,9.94v32.95h-7.59Z" transform="translate(-81.77 -94.43)"/><path class="cls-8" d="M737.78,346.7a25.5,25.5,0,0,1-10.9-2.3,24.26,24.26,0,0,1-8.5-6.58,30.79,30.79,0,0,1-5.52-10.37,44.41,44.41,0,0,1-2-13.69,43.51,43.51,0,0,1,2-13.59A29.86,29.86,0,0,1,718.38,290a23.74,23.74,0,0,1,8.5-6.39,26.43,26.43,0,0,1,10.9-2.21,26,26,0,0,1,10.9,2.26,24.74,24.74,0,0,1,8.55,6.44,29.45,29.45,0,0,1,5.57,10.18,43.21,43.21,0,0,1,2,13.5,44.47,44.47,0,0,1-2,13.69,30.36,30.36,0,0,1-5.57,10.37,24.74,24.74,0,0,1-8.55,6.58A25.51,25.51,0,0,1,737.78,346.7Zm0-7a15.92,15.92,0,0,0,7.64-1.83,17.15,17.15,0,0,0,5.86-5.24,26,26,0,0,0,3.79-8.16,39.36,39.36,0,0,0,1.34-10.71,38.45,38.45,0,0,0-1.34-10.57,24.29,24.29,0,0,0-3.79-8,17.26,17.26,0,0,0-5.86-5,17.3,17.3,0,0,0-15.27,0,17.25,17.25,0,0,0-5.86,5,24.25,24.25,0,0,0-3.79,8,38.41,38.41,0,0,0-1.34,10.57,39.32,39.32,0,0,0,1.34,10.71,26,26,0,0,0,3.79,8.16,17.14,17.14,0,0,0,5.86,5.24A15.91,15.91,0,0,0,737.78,339.68Z" transform="translate(-81.77 -94.43)"/><path class="cls-8" d="M794,331.81a26.28,26.28,0,0,0,7.92,5.72,21.86,21.86,0,0,0,9.46,2.16q6.24,0,9.7-2.83a9.15,9.15,0,0,0,3.46-7.44,9.3,9.3,0,0,0-.82-4.08,8.93,8.93,0,0,0-2.21-2.88,16.1,16.1,0,0,0-3.31-2.16q-1.92-1-4.13-2l-9-3.94A42.68,42.68,0,0,1,800.5,312a18.54,18.54,0,0,1-4.13-3.27,15.6,15.6,0,0,1-3-4.56,16.06,16.06,0,0,1,.34-12.73,16.3,16.3,0,0,1,4.13-5.33,19.17,19.17,0,0,1,6.24-3.51,24.1,24.1,0,0,1,7.92-1.25,25.21,25.21,0,0,1,10.47,2.16,26.28,26.28,0,0,1,8.16,5.62l-4.32,5.19A22.47,22.47,0,0,0,820,290a19,19,0,0,0-7.92-1.58,13.67,13.67,0,0,0-8.5,2.45,8,8,0,0,0-3.22,6.77,7.68,7.68,0,0,0,.91,3.89,9.58,9.58,0,0,0,2.45,2.79A19.82,19.82,0,0,0,807,306.4q1.82.91,3.75,1.68l8.93,3.84a38.48,38.48,0,0,1,5.09,2.64,18.31,18.31,0,0,1,4.13,3.46,15.06,15.06,0,0,1,2.74,4.61,17,17,0,0,1,1,6.1,16.7,16.7,0,0,1-1.49,7,16.88,16.88,0,0,1-4.27,5.72,20.3,20.3,0,0,1-6.72,3.84,26.73,26.73,0,0,1-8.93,1.39,30.23,30.23,0,0,1-22.09-9.32Z" transform="translate(-81.77 -94.43)"/><path class="cls-8" d="M924.22,326.33h-23l-6.05,19.21H887l21.32-63h9l21.33,63h-8.55Zm-2-6.44-3-9.61Q917.5,305,916,299.77t-3.07-10.71h-.38q-1.44,5.48-3,10.71t-3.27,10.52l-3,9.61Z" transform="translate(-81.77 -94.43)"/><path class="cls-8" d="M963.12,282.53h8v63h-8Z" transform="translate(-81.77 -94.43)"/><path class="cls-8" d="M1038.43,345.54l-15.18-26.61h-11.43v26.61h-8v-63h19.69a40.79,40.79,0,0,1,8.88.91,18.91,18.91,0,0,1,7,3,14.39,14.39,0,0,1,4.56,5.47,18.82,18.82,0,0,1,1.63,8.26q0,7.4-3.84,11.82a19.58,19.58,0,0,1-10.28,6.05l15.95,27.47Zm-26.61-33.14h10.57q7.4,0,11.33-3t3.94-9.17q0-6.24-3.94-8.74t-11.33-2.5h-10.57Z" transform="translate(-81.77 -94.43)"/><path class="cls-8" d="M1075.12,282.53h36.31v6.72H1083.1V309H1107v6.82H1083.1v22.86h29.3v6.82h-37.27Z" transform="translate(-81.77 -94.43)"/><path class="cls-8" d="M1141.4,331.81a26.28,26.28,0,0,0,7.92,5.72,21.86,21.86,0,0,0,9.46,2.16q6.24,0,9.7-2.83a9.15,9.15,0,0,0,3.46-7.44,9.3,9.3,0,0,0-.82-4.08,8.93,8.93,0,0,0-2.21-2.88,16.1,16.1,0,0,0-3.31-2.16q-1.92-1-4.13-2l-9-3.94a42.68,42.68,0,0,1-4.51-2.31,18.54,18.54,0,0,1-4.13-3.27,15.6,15.6,0,0,1-3-4.56,16.06,16.06,0,0,1,.34-12.73,16.3,16.3,0,0,1,4.13-5.33,19.17,19.17,0,0,1,6.24-3.51,24.1,24.1,0,0,1,7.92-1.25,25.21,25.21,0,0,1,10.47,2.16,26.28,26.28,0,0,1,8.16,5.62l-4.32,5.19a22.47,22.47,0,0,0-6.39-4.37,19,19,0,0,0-7.92-1.58,13.67,13.67,0,0,0-8.5,2.45,8,8,0,0,0-3.22,6.77,7.68,7.68,0,0,0,.91,3.89,9.58,9.58,0,0,0,2.45,2.79,19.82,19.82,0,0,0,3.36,2.11q1.82.91,3.75,1.68l8.93,3.84a38.48,38.48,0,0,1,5.09,2.64,18.31,18.31,0,0,1,4.13,3.46,15.06,15.06,0,0,1,2.74,4.61,17,17,0,0,1,1,6.1,16.7,16.7,0,0,1-1.49,7,16.88,16.88,0,0,1-4.27,5.72,20.3,20.3,0,0,1-6.72,3.84,26.73,26.73,0,0,1-8.93,1.39,30.23,30.23,0,0,1-22.09-9.32Z" transform="translate(-81.77 -94.43)"/></svg>